<?xml version="1.0" encoding="UTF-8" standalone="no"?>
<!-- Created with Inkscape (http://www.inkscape.org/) -->
<svg
   xmlns:dc="http://purl.org/dc/elements/1.1/"
   xmlns:cc="http://creativecommons.org/ns#"
   xmlns:rdf="http://www.w3.org/1999/02/22-rdf-syntax-ns#"
   xmlns:svg="http://www.w3.org/2000/svg"
   xmlns="http://www.w3.org/2000/svg"
   xmlns:sodipodi="http://sodipodi.sourceforge.net/DTD/sodipodi-0.dtd"
   xmlns:inkscape="http://www.inkscape.org/namespaces/inkscape"
   id="svg2440"
   sodipodi:version="0.32"
   inkscape:version="0.46"
   width="150"
   height="415"
   version="1.0"
   sodipodi:docname="hlame-nun.svg"
   inkscape:output_extension="org.inkscape.output.svg.inkscape">
  <metadata
     id="metadata2445">
    <rdf:RDF>
      <cc:Work
         rdf:about="">
        <dc:format>image/svg+xml</dc:format>
        <dc:type
           rdf:resource="http://purl.org/dc/dcmitype/StillImage" />
      </cc:Work>
    </rdf:RDF>
  </metadata>
  <defs
     id="defs2443">
    <inkscape:perspective
       sodipodi:type="inkscape:persp3d"
       inkscape:vp_x="0 : 526.18109 : 1"
       inkscape:vp_y="0 : 1000 : 0"
       inkscape:vp_z="744.09448 : 526.18109 : 1"
       inkscape:persp3d-origin="372.04724 : 350.78739 : 1"
       id="perspective2447" />
  </defs>
  <sodipodi:namedview
     inkscape:window-height="870"
     inkscape:window-width="897"
     inkscape:pageshadow="2"
     inkscape:pageopacity="0.0"
     guidetolerance="10.0"
     gridtolerance="10.0"
     objecttolerance="10.0"
     borderopacity="1.0"
     bordercolor="#666666"
     pagecolor="#ffffff"
     id="base"
     showgrid="false"
     inkscape:zoom="1.2"
     inkscape:cx="75"
     inkscape:cy="207.5"
     inkscape:window-x="88"
     inkscape:window-y="40"
     inkscape:current-layer="svg2440" />
  <g
     id="g2451"
     transform="translate(-17.5,4.166667)">
    <path
       style="fill:#e8f2f2"
       d="M 56.5,361.71959 C 55.4,361.04882 51.125,360.4446 47,360.37688 C 42.875,360.30917 37.475,359.74303 35,359.11879 C 32.525,358.49456 29.4875,357.75389 28.25,357.47286 C 26.48288,357.07156 26.002547,356.26849 26.011869,353.73095 C 26.025723,349.95952 28.423594,340.42435 29.793409,338.6936 C 30.977999,337.19687 32.922977,328.69149 33.194218,323.82188 C 33.35204,320.98849 32.836519,319.67556 30.949546,318.10514 C 29.602296,316.98391 27.587508,316.05157 26.472241,316.03327 C 22.608711,315.96988 21.485691,313.14493 21.688588,304 C 21.898491,294.53927 23.34768,278.88763 25.484787,263 C 26.261605,257.225 27.180565,247.55 27.52692,241.5 C 27.873275,235.45 28.815304,226.18914 29.620318,220.92031 C 30.425331,215.65148 31.212999,207.69047 31.370691,203.22917 C 31.552505,198.08546 32.174677,194.49445 33.071221,193.41418 C 34.038568,192.2486 34.464414,189.24232 34.41973,183.89431 C 34.375636,178.61696 34.750444,175.92601 35.573588,175.61014 C 36.244129,175.35282 37.100281,172.74778 37.476149,169.82115 C 37.852016,166.89452 38.590485,162.81438 39.117191,160.75418 C 39.756962,158.25172 39.726264,156.35704 39.024707,155.04616 C 38.175892,153.46014 38.360741,152.8773 39.988937,152.00592 C 41.096836,151.41299 42.639259,149.4058 43.416544,147.5455 C 44.697363,144.48006 44.640565,143.78067 42.810391,140.08156 C 40.81513,136.04878 39.636806,135.16061 38.570594,136.88578 C 37.868357,138.02202 24.901583,137.05858 23.25,135.74744 C 22.5625,135.20166 21.993109,133.79771 21.984687,132.62756 C 21.971851,130.84414 21.794841,130.74263 20.890355,132 C 20.02839,133.19826 19.961419,133.09768 20.557428,131.5 C 20.967778,130.4 21.378185,128.57728 21.469444,127.4495 C 21.560702,126.32173 21.890557,124.97173 22.202454,124.4495 C 22.514352,123.92728 24.00107,120.35 25.506272,116.5 C 27.011475,112.65 28.80221,108.15 29.485684,106.5 C 30.169157,104.85 31.426331,101.7 32.279402,99.5 C 33.132473,97.3 34.099522,94.825 34.428398,94 C 34.757274,93.175 36.355607,90.25 37.980248,87.5 C 39.604889,84.75 40.948959,81.445978 40.96707,80.157729 C 40.985182,78.86948 41.907883,76.661273 43.017517,75.250601 C 44.228782,73.710727 44.795904,71.932312 44.43665,70.800402 C 44.0238,69.499628 44.657335,68.27078 46.479921,66.837134 C 47.978365,65.658458 48.886612,64.1469 48.578637,63.344329 C 48.28002,62.566146 50.043323,56.965607 52.497087,50.898687 C 54.950851,44.831766 57.458057,37.98514 58.068655,35.683961 C 58.679252,33.382782 59.985414,30.6 60.971235,29.5 C 63.044952,27.186104 68,18.008234 68,16.481137 C 68,15.91201 71.127433,12.342893 74.949851,8.5497645 L 81.899703,1.653168 L 98.029485,1.7436638 C 116.55027,1.8475742 118,2.3848106 118,9.144261 C 118,11.253118 118.89977,15.345874 119.9995,18.239273 C 121.09922,21.132673 121.99922,24.4574 121.9995,25.627555 C 121.99977,26.797711 122.675,28.315311 123.5,29 C 125.66333,30.795407 125.39614,34.739495 123.06097,35.48065 C 121.6655,35.923555 120.7782,37.694495 119.89575,41.798038 C 119.22134,44.934117 118.24173,48.058986 117.71882,48.74219 C 117.19591,49.425395 113.72056,50.891969 109.99582,52.001245 C 104.70081,53.578167 102.65385,54.765043 100.61178,57.442333 C 97.220388,61.888681 97.318286,64.533487 101.09468,70.488246 C 102.83339,73.229908 105.03615,78.902254 106.12196,83.434027 C 107.18489,87.870312 108.78006,94.059531 109.66679,97.187848 C 111.83321,104.83086 111.02001,119.32582 107.99503,126.98628 C 105.63606,132.96013 105.79161,139.57689 108.47727,147.5 C 109.223,149.7 110.39071,153.67874 111.07219,156.34165 C 111.75367,159.00456 113.81622,162.98464 115.65562,165.18627 C 117.49503,167.3879 119,169.63989 119,170.19071 C 119,173.3023 122.4983,182.34089 125.51473,187.02287 C 128.6156,191.8359 129,193.17621 129,199.17504 L 129,205.91753 L 135,213.08126 C 141.17205,220.45041 142.08527,222.85441 139.52101,224.98256 C 138.39238,225.91925 138.29393,226.6807 139.10543,228.197 C 140.78691,231.33888 143.70752,241.0791 144.42878,245.95039 C 144.7912,248.3981 145.43693,250.8731 145.86373,251.45039 C 146.29054,252.02767 147.15591,254.3 147.78679,256.5 C 151.85289,270.67947 154.45829,279.13841 156.10888,283.51933 C 157.149,286.27996 158,290.66746 158,293.26933 C 158,300.49538 156.45243,301.48235 142.89565,302.90222 C 136.62804,303.55866 129.08402,304.5672 126.13115,305.14344 L 120.7623,306.19114 L 121.42612,310.34557 C 121.79122,312.63051 122.35738,316.44927 122.68424,318.83171 C 123.16254,322.318 124.2537,324.12334 128.275,328.08171 C 131.02307,330.78677 133.86974,333 134.60094,333 C 135.33215,333 137.46797,334.35 139.34722,336 C 141.22646,337.65 143.45482,339 144.29911,339 C 147.79779,339 154.60241,342.83198 155.80996,345.48226 C 157.52364,349.24337 155.87858,350.99763 150.62756,351.00869 C 148.3574,351.01347 140.875,351.69101 134,352.51433 C 120.98414,354.07305 102.66113,353.6556 100.25,351.74541 C 98.50365,350.36188 98.66388,340.0487 100.5,335.65424 C 102.07992,331.87297 102.43704,323.46768 101.35362,315.56325 L 100.70723,310.84736 L 94.103615,311.38198 C 73.995913,313.00986 72.131271,313.37832 69.46876,316.25 C 67.14943,318.75153 66.278652,319 59.831046,319 L 52.743029,319 L 53.205432,326.98774 C 53.714876,335.78809 55.451553,339 59.700442,339 C 62.576969,339 67,343.14915 67,345.84756 C 67,347.92254 68.827159,349 72.345904,349 C 73.546186,349 76.990529,349.9 80,351 C 83.009471,352.1 85.574786,353 85.700699,353 C 85.826613,353 86.420395,353.917 87.020215,355.03777 C 88.726852,358.22665 87.290715,360.82506 83.192491,361.9633 C 77.995496,363.40671 58.982008,363.23311 56.5,361.71959 z"
       id="path2481"
       sodipodi:nodetypes="cssssssssssssssssssssssssssssssssssssssssssscccsssssssssssssssssscccsssssssscccsssssssssscccscccsssssssc" />
    <path
       style="fill:#d2e8e8"
       d="M 55,360.38319 C 52.58294,359.32071 50.011337,359.03658 46.688726,359.46491 C 42.230305,360.03965 37.157301,359.09696 32.763569,356.87724 C 31.808532,356.39476 30.121032,356 29.013569,356 C 27.588573,356 27.003469,355.34232 27.011869,353.75 C 27.027841,350.72214 29.43025,342.20205 31.311912,338.5 C 32.150566,336.85 33.366149,331.93413 34.013206,327.57584 C 35.169532,319.78735 35.149528,319.62138 32.844837,317.88234 C 30.74953,316.3013 30.53696,315.4587 30.847314,309.96444 C 31.160029,304.42838 31.010602,303.85088 29.347314,304.1673 C 27.879976,304.44645 27.437828,305.59668 27.19774,309.75937 C 26.867668,315.48223 25.873937,316.26343 23.511216,312.65746 C 22.237296,310.71321 22.142156,309.05547 22.951651,302.90746 C 23.488079,298.83336 24.413119,290.1 25.007295,283.5 C 25.601471,276.9 26.742901,266.94225 27.543807,261.37166 C 28.344713,255.80108 29,248.09919 29,244.25635 C 29,240.41351 29.9,230.62316 31,222.5 C 32.1,214.37684 33,204.95624 33,201.56531 C 33,198.17439 33.377552,194.9725 33.839003,194.45 C 34.300455,193.9275 35.268566,190.92818 35.990361,187.78484 C 37.066465,183.09852 37.069025,181.7881 36.004583,180.50552 C 34.91661,179.1946 35.054,178.57142 36.853226,176.65623 C 38.033952,175.39941 39,173.81104 39,173.12653 C 39,172.44202 39.445842,172.15751 39.990759,172.49429 C 40.535676,172.83107 41.729128,171.39512 42.642874,169.30331 C 44.072379,166.03077 46.48375,161.03246 51.36615,151.22161 C 51.989768,149.96849 53.524594,148.67917 54.776876,148.35645 C 58.026914,147.5189 56.071115,145.55982 50.399705,143.97192 C 44.395689,142.2909 42.636321,140.54806 44.128594,137.75972 C 45.038655,136.05925 44.924774,135.41816 43.531703,134.39952 C 41.434839,132.86626 42.228954,127.77105 44.996051,125.00395 C 45.981879,124.01812 47.075629,121.25144 47.426606,118.85577 C 47.777583,116.4601 48.550207,111.69241 49.143547,108.2609 C 49.736887,104.8294 49.951985,101.31726 49.621542,100.45614 C 49.291099,99.595018 50.089473,96.327611 51.395705,93.195233 C 52.701937,90.062855 54.076196,86.068594 54.449615,84.319098 C 55.184631,80.875488 57.964379,77.633552 58.043589,80.127555 C 58.067563,80.8824 58.547021,86.225 59.10905,92 C 59.67108,97.775 60.290582,105.2 60.485722,108.5 C 61.463825,125.04069 62.133864,128.98035 64.217086,130.4395 C 65.511446,131.3461 66.030723,132.47755 65.63078,133.51979 C 65.260341,134.48514 65.443963,135.01868 66.07432,134.80856 C 66.665944,134.61135 67.11625,134.12375 67.075,133.725 C 67.03375,133.32625 67,131.65 67,130 C 67,128 66.5,127 65.5,127 C 64.675,127 64.006891,126.6625 64.015313,126.25 C 64.039703,125.05541 65.640788,122.84453 66.611803,122.66459 C 67.100312,122.57407 67.553008,115.75 67.617796,107.5 C 67.751673,90.452323 70.753185,67.526231 74.580175,54.320088 C 76.796188,46.673092 80.539091,36.250318 87.338036,18.793571 C 88.900512,14.781809 89.558253,11.845019 88.975007,11.484554 C 88.438753,11.15313 88,11.485243 88,12.222581 C 88,14.003636 78.957861,29.279366 77.299645,30.29969 C 76.58484,30.73952 76,31.673578 76,32.375376 C 76,34.100483 71.190438,38.523771 70.291798,37.625131 C 69.89795,37.231283 70.217469,35.917008 71.001841,34.704522 C 72.347435,32.624494 75.794074,26.196946 81.031754,16 C 85.200718,7.8836767 85.152002,8.1118748 83.002289,6.7693567 C 77.507461,3.3377797 84.623108,1.5755418 102.5,1.9406172 C 114.98484,2.195578 117,3.1272291 117,8.644261 C 117,10.478118 117.89977,14.345874 118.9995,17.239273 C 120.09922,20.132673 121.00199,23.175 121.00566,24 C 121.00932,24.825 121.68455,26.788938 122.50616,28.364307 C 124.51286,32.211977 124.38829,34.665197 122.15658,35.248803 C 120.81046,35.600819 119.99269,37.359798 119.12523,41.769009 C 118.47187,45.089987 117.37966,48.269944 116.69811,48.835581 C 116.01656,49.401217 112.6364,50.648742 109.18665,51.607859 C 103.94846,53.064207 102.42683,54.014659 99.957186,57.372857 C 98.330734,59.584488 97.011518,62.317854 97.025596,63.447003 C 97.039674,64.576151 98.59875,67.928893 100.49021,70.89754 C 102.6989,74.364079 104.50768,79.014905 105.54611,83.89754 C 106.43539,88.078893 107.85673,93.695456 108.70464,96.378792 C 110.89103,103.29797 109.98984,120.51003 107.05565,127.87332 C 104.76496,133.62176 104.87426,138.50956 107.47219,146.5 C 108.18747,148.7 109.52702,153.10393 110.44896,156.28651 C 111.3709,159.46909 113.3789,163.51909 114.91118,165.28651 C 116.44346,167.05393 118.65138,171.67408 119.81767,175.55351 C 120.98397,179.43295 123.29392,184.60795 124.95091,187.05351 C 127.59346,190.9537 127.96584,192.37181 127.9818,198.59588 L 128,205.69175 L 134,212.8377 C 137.83917,217.41012 140,220.88695 140,222.49183 C 140,223.87132 139.55,225 139,225 C 137.76992,225 137.67812,228.24911 138.87145,229.55 C 139.88082,230.65035 142.61539,239.88866 143.4447,245 C 143.75703,246.925 144.85099,250.75 145.87572,253.5 C 147.85532,258.81254 152.31695,273.70497 154.02689,280.70778 C 154.59199,283.02206 155.49212,285.18611 156.02717,285.51679 C 157.57276,286.47202 157.21521,297.64193 155.58693,299.27021 C 154.69826,300.15888 148.88148,301.30943 139.91282,302.37053 C 123.57132,304.30391 120.40239,305.40275 120.70842,309.02978 C 121.78214,321.75553 122.17128,322.99268 126.50189,327.44855 C 128.83816,329.8524 132.26848,332.59818 134.12483,333.55028 C 135.98117,334.50239 138.77203,336.34308 140.32673,337.64069 C 141.88142,338.93831 143.96397,340 144.9546,340 C 148.08982,340 153.8851,342.91679 155.04094,345.07649 C 156.74696,348.26422 155.5136,350 151.54253,350 C 149.60639,350 141.82977,350.70663 134.26114,351.5703 C 124.24409,352.71336 117.77923,352.91741 110.5,352.3203 L 100.5,351.5 L 100.20006,345.16421 C 100.00158,340.97178 100.47437,337.32475 101.59762,334.38355 C 102.96225,330.81033 103.16745,328.13987 102.64402,320.7658 C 102.28591,315.72071 101.59214,311.19214 101.1023,310.7023 C 100.61246,310.21246 97.576557,310.06729 94.355843,310.3797 C 91.135129,310.69211 84.816178,311.29698 80.313729,311.72386 C 73.367261,312.38245 71.701153,312.90871 69.312622,315.19864 C 66.892478,317.51887 65.516412,317.93953 59.498893,318.19864 L 52.5,318.5 L 52.199305,323.70488 C 51.905249,328.79485 53.106369,335.11417 54.895581,337.89049 C 55.388439,338.65526 57.526057,339.55785 59.645843,339.89624 C 62.695699,340.38311 63.837583,341.18604 65.117677,343.74385 C 67.627319,348.75847 68.79287,349.75742 72.788305,350.31808 C 82.652696,351.70231 87,353.94198 87,357.63976 C 87,361.1493 83.666174,362.00602 70.1849,361.96086 C 61.924304,361.93319 57.474312,361.47085 55,360.38319 z M 45.029277,307.19098 C 45.045379,302.41094 45.710686,291.3 46.507737,282.5 C 48.093683,264.99005 48.319424,259.34724 47.397064,260.2696 C 46.669717,260.99695 44.425346,279.96822 42.637661,300.5 C 41.74121,310.79585 41.656662,315.71451 42.368066,316.18402 C 44.451614,317.55909 45.0006,315.7039 45.029277,307.19098 z M 32.861234,267 C 32.871888,263.00246 32.761329,262.77914 31.871065,265 C 31.319875,266.375 30.695253,272.225 30.483015,278 L 30.097128,288.5 L 31.473184,280 C 32.230015,275.325 32.854638,269.475 32.861234,267 z M 34.683114,246.8125 C 34.363888,246.01477 34.126931,246.25172 34.078947,247.41667 C 34.035526,248.47083 34.271875,249.06146 34.604167,248.72917 C 34.936458,248.39687 34.971985,247.53438 34.683114,246.8125 z M 36,240.44098 C 36,239.58352 35.55,239.16008 35,239.5 C 34.45,239.83992 34,240.54148 34,241.05902 C 34,241.57656 34.45,242 35,242 C 35.55,242 36,241.29844 36,240.44098 z M 53.782005,214.5 C 53.764279,210.69495 53.726166,210.64621 53,213.5 C 52.580146,215.15 52.228244,218.075 52.217995,220 C 52.201182,223.15776 52.277648,223.25555 53,221 C 53.440352,219.625 53.792254,216.7 53.782005,214.5 z M 54.683114,205.8125 C 54.363888,205.01477 54.126931,205.25172 54.078947,206.41667 C 54.035526,207.47083 54.271875,208.06146 54.604167,207.72917 C 54.936458,207.39687 54.971985,206.53438 54.683114,205.8125 z M 53.462487,183.17862 C 54.525221,178.82398 56.283077,174.6286 57.800562,172.82517 C 59.772346,170.48184 60.116254,169.4158 59.314564,168.13209 C 58.744039,167.21853 58.454283,164.90259 58.670662,162.98554 C 59.034377,159.76313 58.909614,159.87746 57.018015,164.5 C 55.892681,167.25 54.693421,171.3 54.352993,173.5 C 54.012564,175.7 53.168957,178.175 52.47831,179 C 50.418812,181.46014 49.343357,189.01097 49.914595,197 L 50.450866,204.5 L 51.063299,197.5 C 51.400138,193.65 52.479772,187.20538 53.462487,183.17862 z M 56.662281,189.75 C 56.384868,189.0625 56.157895,189.625 56.157895,191 C 56.157895,192.375 56.384868,192.9375 56.662281,192.25 C 56.939693,191.5625 56.939693,190.4375 56.662281,189.75 z M 56.683114,183.8125 C 56.363888,183.01477 56.126931,183.25172 56.078947,184.41667 C 56.035526,185.47083 56.271875,186.06146 56.604167,185.72917 C 56.936458,185.39687 56.971985,184.53438 56.683114,183.8125 z M 59.683114,174.8125 C 59.363888,174.01477 59.126931,174.25172 59.078947,175.41667 C 59.035526,176.47083 59.271875,177.06146 59.604167,176.72917 C 59.936458,176.39687 59.971985,175.53438 59.683114,174.8125 z M 62.969374,162 C 62.969374,160.66667 62.861666,160.66667 62,162 C 61.466844,162.825 61.030626,164.175 61.030626,165 C 61.030626,166.33333 61.138334,166.33333 62,165 C 62.533156,164.175 62.969374,162.825 62.969374,162 z M 42.592138,156.14908 C 42.215594,155.53982 42.471136,154.01953 43.16001,152.77067 C 44.221627,150.84605 44.467529,150.76191 44.773528,152.21858 C 45.253683,154.50429 43.513481,157.63985 42.592138,156.14908 z M 23.490621,133.98964 C 21.61365,131.91561 21.621126,131.77869 23.998315,124.6923 C 26.677172,116.70665 33.767892,100.01107 35.087202,98.582783 C 36.683754,96.85435 37.286802,101.13178 36.180075,106.33455 C 35.575741,109.17555 34.037541,116.9 32.761854,123.5 C 30.564944,134.86612 30.30913,135.51571 27.919035,135.79733 C 26.339195,135.98349 24.683318,135.30755 23.490621,133.98964 z M 43.574206,119.33278 C 43.222332,118.41581 43.399187,117.20081 43.967217,116.63278 C 44.677594,115.92241 45,116.44286 45,118.3 C 45,121.38485 44.5005,121.74667 43.574206,119.33278 z M 40,97 C 40,96.45 40.45,96 41,96 C 41.55,96 42,96.45 42,97 C 42,97.55 41.55,98 41,98 C 40.45,98 40,97.55 40,97 z M 62.613872,95.59768 C 62.282253,94.276404 62.278804,91.85598 62.606208,90.21896 C 62.951214,88.493932 62.738701,86.956542 62.100744,86.562263 C 60.069755,85.307043 60.871224,78.16425 63.512545,73.980128 C 64.894444,71.791058 66.144194,70 66.289766,70 C 66.435338,70 66.206561,74.6125 65.781372,80.25 C 65.343345,86.057728 65.400773,91.644274 65.91388,93.140271 C 66.51465,94.891854 66.445934,96.154066 65.709729,96.890271 C 64.036839,98.563161 63.278716,98.246628 62.613872,95.59768 z M 55,50.24002 C 55,48.059384 63.000361,29.674532 65.94861,25.080084 C 67.626875,22.464736 69,19.624391 69,18.768208 C 69,16.953206 74.288778,11 75.90121,11 C 76.505544,11 77,11.140585 77,11.312412 C 77,12.012436 71.148219,28.715304 69.927362,31.5 C 67.198074,37.72533 55,53.038963 55,50.24002 z"
       id="path2479"
       sodipodi:nodetypes="cssssssssssssssssssssssssssssssssssssssssssssssssssssssssssssssssssssssssssssscccssssssssssssssssscccsssssscccssssssccssssccscccccssccsssccsssccssccsssssscccccssccssccssccsssccssccsssssccssccsssccsssssssccsssssc" />
    <path
       style="fill:#b1d5d5"
       d="M 55.5,359.85644 C 51.700108,358.31027 49.332014,357.97529 45.633828,358.46083 C 41.970724,358.94176 40.347329,358.71932 39.067514,357.5611 C 38.132436,356.71487 35.597213,355.41255 33.433686,354.66706 C 28.271464,352.8883 27.967997,350.23212 31.928949,341.49643 C 34.106991,336.69286 35.160948,332.50896 35.640007,326.76462 C 36.250579,319.44334 36.130694,318.60001 34.269101,317.12087 C 32.264063,315.52777 32.251253,315.20017 33.521431,298 C 35.524297,270.87809 38.476284,217.53193 39.470099,190.5 C 39.798163,181.57659 40.239144,179.5849 43.566187,172 C 50.511142,156.16709 59.09933,145.08259 57.318757,154.25 C 56.971573,156.0375 54.742308,163.69005 52.364835,171.25566 L 48.042156,185.01132 L 48.571695,197.75566 C 48.862941,204.76505 49.557872,214.1 50.115987,218.5 C 51.009414,225.5435 50.812606,228.35321 48.469923,241.99993 C 47.006474,250.52489 45.645014,257.76536 45.444457,258.08987 C 43.914476,260.56543 39.775596,314.99157 41.01449,316.34378 C 41.439679,316.80786 42.622859,317.02834 43.64378,316.83374 C 45.195654,316.53793 45.537124,315.41582 45.726421,309.98996 C 46.455805,289.08341 50.562762,243.8739 53.038351,229.5 C 54.080331,223.45 55.835388,210.32804 56.938478,200.3401 C 58.041568,190.35215 59.61766,180.45215 60.440905,178.3401 C 61.610539,175.33938 66,152.67692 66,149.63891 C 66,149.28751 65.115628,149 64.034728,149 C 62.953829,149 60.015861,147.69765 57.50591,146.10588 C 54.99596,144.51412 51.356682,142.91429 49.418625,142.55071 C 45.662704,141.8461 44.004061,139.59594 45.867217,137.73278 C 46.490248,137.10975 47,135.33106 47,133.78013 C 47,132.2292 48.084024,129.24305 49.408943,127.14424 C 50.733861,125.04544 51.971361,122.27713 52.158943,120.99244 C 53.24505,113.55406 58.314249,121.87296 57.864061,130.35493 C 57.600371,135.32309 57.675066,135.47535 60.81812,136.37677 C 62.918754,136.97922 64.84992,136.93378 66.358565,136.2464 C 68.663754,135.19608 68.677531,135.0745 69.350182,109.84561 C 70.387216,70.949951 72.680118,59.126019 85.512598,26.5 C 92.444774,8.8752439 93.090012,6.6144777 91.25,6.3974419 C 90.5625,6.3163488 89.471559,6.19375 88.825686,6.125 C 88.179813,6.05625 88.727056,4.8549867 90.041781,3.4555261 C 92.376673,0.97014717 92.653613,0.92628373 101.9661,1.5668813 C 113.042,2.3287831 116,3.6937731 116,8.0429234 C 116,9.691173 117.125,13.808383 118.5,17.192279 C 119.875,20.576174 121,24.183065 121,25.207591 C 121,26.232118 121.72448,28.17606 122.60995,29.527463 C 124.40673,32.269694 123.86862,35 121.53138,35 C 120.68219,35 120,35.864652 120,36.940983 C 120,38.008524 119.55,39.160081 119,39.5 C 118.45,39.839919 118,41.596732 118,43.404029 C 118,47.62115 115.96955,49.347218 108.5,51.479888 C 97.403411,54.648132 94.19159,61.935221 99.934998,70.912453 C 101.54925,73.435604 103.81082,79.325 104.96071,84 C 106.11061,88.675 107.77963,95.066095 108.66964,98.202433 C 110.7747,105.6205 109.99483,118.31807 106.96234,126 C 105.23232,130.38252 104.91375,132.69577 105.3944,137.3853 C 106.26351,145.86473 111.60241,162.37404 114.64466,165.98955 C 116.06575,167.67842 118.06319,171.7422 119.08341,175.02016 C 121.16126,181.69633 123.36162,186.31828 126.18853,189.94478 C 127.69425,191.8764 128.05262,193.81582 127.89586,199.1845 L 127.69745,205.97943 L 133.84873,213.47414 C 137.23193,217.59624 140,221.50293 140,222.15569 C 140,222.80844 139.28913,224.12802 138.4203,225.08807 C 137.1533,226.48809 137.06956,227.26145 137.99726,228.99488 C 139.81325,232.38809 142.94827,242.27243 142.97541,244.6904 C 142.98894,245.89512 144.05425,249.94512 145.34277,253.6904 C 146.63129,257.43568 148.92591,264.775 150.44191,270 C 151.95792,275.225 154.05367,281.7587 155.09914,284.51933 C 156.14461,287.27996 157,291.21746 157,293.26933 C 157,299.53398 155.30204,300.36863 138.63087,302.29888 C 130.50092,303.2402 122.92958,304.5025 121.80566,305.10401 C 119.64251,306.26169 119.64241,306.14868 121.81859,319.76293 C 122.56654,324.44212 127.95291,330.90162 133.4599,333.72356 C 135.13196,334.58036 137.77203,336.34308 139.32673,337.64069 C 140.88142,338.93831 142.96397,340 143.9546,340 C 146.51642,340 152.43176,342.61038 153.91218,344.39419 C 154.60132,345.22454 155.01256,346.69626 154.82606,347.66468 C 154.1048,351.40988 105.61434,354.19695 101.25,350.74406 C 99.537922,349.38953 99.677362,341.16591 101.5,336 C 103.08023,331.52115 103.43874,322.48011 102.35085,314.54308 L 101.7017,309.80702 L 93.60085,310.38183 C 75.623562,311.65744 71.240869,312.42509 68.790034,314.72753 C 66.99403,316.41479 64.672808,317.10939 59.099226,317.6274 L 51.770114,318.30856 L 52.197577,326.90428 C 52.711295,337.23447 53.999363,339.6854 59.482511,340.76606 C 62.809774,341.42181 63.855079,342.24 65.56675,345.52832 C 66.959963,348.20484 68.589424,349.77138 70.56675,350.33525 C 72.180038,350.7953 74.881949,351.58307 76.570998,352.08585 C 78.260047,352.58863 80.552802,353 81.66601,353 C 84.689017,353 87.685096,356.69034 86.363321,358.78579 C 84.841582,361.19825 81.747944,361.79501 70.5,361.84579 C 62.672668,361.88113 59.413666,361.44891 55.5,359.85644 z M 67.649356,243 C 68.021172,227.41285 67.860276,217.22674 67.207078,215 C 66.332275,212.01782 66.167033,212.99261 66.090188,221.58876 C 66.040585,227.13758 65.782803,241.31258 65.517339,253.08876 C 65.169848,268.50375 65.318966,273.51982 66.049805,271 C 66.608125,269.075 67.327923,256.475 67.649356,243 z M 80.375138,144.28504 C 78.688153,143.05149 76,142.52915 76,143.4349 C 76,143.6741 76.461442,145.08349 77.025427,146.56688 C 78.030773,149.21114 78.090817,149.22779 80.091695,147.41702 C 82.020963,145.67105 82.036459,145.49983 80.375138,144.28504 z M 90.026922,119.95738 C 86.626724,112.79591 86.676864,114.13827 90.180893,124.07951 C 91.681692,128.3374 92.60459,129.91021 92.796411,128.53688 C 92.959437,127.36971 91.713167,123.50894 90.026922,119.95738 z M 84.705733,90.75 C 84.46738,89.5125 84.272364,90.525 84.272364,93 C 84.272364,95.475 84.46738,96.4875 84.705733,95.25 C 84.944086,94.0125 84.944086,91.9875 84.705733,90.75 z M 99,10.381966 C 99,9.556966 98.55,9.1600813 98,9.5 C 97.45,9.8399187 97,10.793034 97,11.618034 C 97,12.443034 97.45,12.839919 98,12.5 C 98.55,12.160081 99,11.206966 99,10.381966 z M 32.015313,230.19098 C 32.005997,227.5696 32.391652,226.12402 33,226.5 C 34.268504,227.28398 34.268504,231.03713 33,233 C 32.291231,234.09674 32.026509,233.34157 32.015313,230.19098 z M 33.252183,219.5 C 33.263283,217.3 33.468068,216.51775 33.707261,217.76166 C 33.946454,219.00557 33.937373,220.80557 33.68708,221.76166 C 33.436788,222.71775 33.241084,221.7 33.252183,219.5 z M 25.559569,133.06582 C 23.891118,131.22221 23.895567,130.97652 25.654581,127.81838 C 26.669562,125.99608 28.010735,124.05396 28.634966,123.50256 C 29.259198,122.95115 30.044707,121.825 30.380543,121 C 30.716378,120.175 30.722347,122.65 30.393806,126.5 C 29.596986,135.83751 28.91104,136.76916 25.559569,133.06582 z M 66.461419,31.5 C 67.195111,28.250058 71.140509,19.807176 71.675518,20.342185 C 72.330507,20.997173 69.213475,29.853906 67.520957,32.146954 L 65.784153,34.5 L 66.461419,31.5 z"
       id="path2477"
       sodipodi:nodetypes="csssssssssscccssssssssssssssssssssssssssssssssssssssssssscccsssssssssssssssssscccscccsssssssccssssccsssccssccssccsssccssccssccssssccsccc" />
    <path
       style="fill:#91c6c6"
       d="M 55.22583,358.99626 C 53.425037,357.89832 51.152537,357 50.17583,357 C 49.199124,357 47.9725,356.61238 47.45,356.13862 C 46.9275,355.66486 43.0125,354.7012 38.75,353.99716 C 33.44334,353.12065 31,352.28178 31,351.33634 C 31,350.27572 32.506939,350.01871 37.499738,350.2278 C 41.074594,350.37751 43.999594,350.78872 43.999738,351.14159 C 44.000155,352.16312 48.681668,353.05939 50.457522,352.37793 C 52.060794,351.76269 55.779712,345.76547 54.281029,346.21204 C 53.851463,346.34004 52.270204,345.62299 50.767119,344.61859 C 48.494373,343.09989 47.501122,342.97826 44.867896,343.89621 C 40.372859,345.46319 40,345.33326 40,342.2 C 40,340.66 39.604349,338.9725 39.120777,338.45 C 37.796353,337.01896 36.788661,313.78496 37.973602,312 C 38.756772,310.82026 38.972644,311.09172 38.984687,313.27144 C 38.995657,315.25681 39.716774,316.36946 41.527126,317.19431 C 45.209991,318.87234 45.947063,317.51006 46.533186,307.94198 C 46.817613,303.29889 47.492738,295 48.033465,289.5 C 48.574192,284 49.469976,272.075 50.024096,263 C 50.578217,253.925 51.704918,243.575 52.527878,240 C 54.288755,232.35061 55.328062,224.81553 57.956467,200.64216 C 59.155258,189.61692 60.648845,180.81688 61.860144,177.64216 C 62.939227,174.81397 64.315449,168.675 64.918416,164 C 65.521382,159.325 66.295286,153.8125 66.638202,151.75 C 67.194882,148.40179 67.034987,148 65.145865,148 C 63.982164,148 60.836016,146.65 58.154424,145 C 55.472832,143.35 52.766072,142 52.139401,142 C 51.512731,142 51,141.59418 51,141.09819 C 51,140.60219 53.8125,139.87467 57.25,139.48147 C 63.575231,138.75796 68.269406,136.99114 69.604101,134.83156 C 70.006111,134.1811 70.665522,120.7904 71.069461,105.07445 C 72.057224,66.643819 72.06136,66.623902 88.322283,22 C 90.22627,16.775 92.680149,10.161917 93.775348,7.3042594 L 95.766619,2.1085187 L 93.633309,1.627581 C 92.459989,1.3630652 95.256759,1.3894028 99.848353,1.6861088 C 110.72845,2.3891741 113.48357,3.1706347 113.56541,5.5768005 C 113.60138,6.6345602 114.38888,9.1875 115.31541,11.25 C 118.70559,18.796748 120.00014,22.280172 120.00616,23.872124 C 120.00955,24.767456 120.68455,26.788938 121.50616,28.364307 C 123.22176,31.65382 123.43804,34 122.02568,34 C 120.51993,34 118,39.557885 118,42.878912 C 118,46.931808 115.87868,48.747309 108.86447,50.697434 C 104.39542,51.93994 102.0549,53.303712 99.45759,56.178623 C 95.118796,60.981149 95.03984,64.094423 99.094682,70.488246 C 100.83339,73.229908 103.03615,78.902254 104.12196,83.434027 C 105.18489,87.870312 106.78006,94.059531 107.66679,97.187848 C 109.83631,104.84179 109.02025,119.32753 105.9873,127 C 103.62964,132.96419 103.7675,138.67058 106.45838,146.5 C 107.2145,148.7 108.39915,152.70888 109.09094,155.40863 C 109.78274,158.10838 111.8929,162.60838 113.7802,165.40863 C 115.6675,168.20888 118.04788,173.2 119.06995,176.5 C 120.09202,179.8 122.37028,184.75 124.13275,187.5 C 126.94778,191.8923 127.33156,193.31928 127.2904,199.24091 L 127.24355,205.98181 L 133.12177,212.98273 C 139.16496,220.18013 139.79875,221.74814 137.89614,224.79469 C 137.04211,226.16222 137.35896,228.25259 139.29618,234.03113 C 140.67333,238.13901 142.0898,243.50267 142.4439,245.95039 C 142.798,248.3981 143.43693,250.8731 143.86373,251.45039 C 144.29054,252.02767 145.22568,254.525 145.94183,257 C 146.65798,259.475 148.28268,264.875 149.55228,269 C 150.82187,273.125 152.17449,278.075 152.55809,280 C 152.94169,281.925 153.87305,284.38763 154.62777,285.47251 C 156.35032,287.94858 156.43726,297.40244 154.75,298.76328 C 154.0625,299.31778 147.02177,300.50483 139.10394,301.40117 C 131.18611,302.29751 123.53611,303.59853 122.10394,304.29232 C 119.1827,305.70748 119.04055,307.10505 120.7184,317.91488 C 121.63595,323.82641 122.1065,324.68954 126.71521,328.91488 C 134.51493,336.0658 140.88143,339.85402 148.5,341.87735 C 152.47207,342.93225 155.92631,346.54966 154.3321,347.98495 C 152.53693,349.60116 118.66563,352.14517 110,351.31465 L 101.5,350.5 L 101.19772,344.67033 C 101.00388,340.93204 101.50461,337.24556 102.59349,334.39436 C 103.97786,330.76945 104.16545,328.15415 103.60894,320.2372 C 103.23351,314.89623 102.54398,310.14398 102.07666,309.67666 C 101.60934,309.20934 97.913412,309.09715 93.863492,309.42735 C 89.813571,309.75755 83.265922,310.28104 79.313159,310.59066 C 73.328185,311.05945 71.655869,311.60063 69.313159,313.8268 C 66.919015,316.10183 65.38289,316.57447 59,317 L 51.5,317.5 L 51.199916,323.84117 C 50.911925,329.92681 53.041468,339.28956 54.987131,340.49205 C 55.445946,340.77561 57.099039,341.0865 58.660671,341.18291 C 62.024258,341.39058 65,343.64269 65,345.98067 C 65,349.1325 69.212996,351.73396 75.5,352.46424 C 81.931262,353.21129 86,355.15794 86,357.48787 C 86,360.15037 82.201612,361.00002 70.315741,360.99626 C 60.271687,360.99308 58.009061,360.6932 55.22583,358.99626 z M 67.517231,267 C 69.706607,242.24429 69.264624,216.69697 66.474873,206.75 C 65.433656,203.0375 64.173373,200 63.674244,200 C 63.175115,200 63.055058,201.0125 63.40745,202.25 C 64.820141,207.21097 65.13788,230.12872 64.208114,260 C 63.229758,291.4324 63.608789,305.30715 65.09595,292.5 C 65.479144,289.2 66.568721,277.725 67.517231,267 z M 62.692991,184.26903 C 62.439447,183.29606 62.215328,183.85 62.194949,185.5 C 62.174569,187.15 62.382014,187.94606 62.655937,187.26903 C 62.92986,186.592 62.946534,185.242 62.692991,184.26903 z M 70.546925,171.46435 C 70.192205,169.09891 69.170997,166.56424 68.277574,165.83177 C 66.835482,164.64947 66.733287,164.78058 67.367009,167 C 67.75962,168.375 68.625157,171.68493 69.290424,174.3554 C 70.668248,179.88617 71.517003,177.93329 70.546925,171.46435 z M 84.805098,145.20238 C 85.060795,143.54147 84.413112,143.14597 80.805098,142.75981 C 78.437294,142.50639 76.194973,142.56926 75.822163,142.89952 C 75.449353,143.22978 75.760631,144.9518 76.513893,146.72623 C 77.866355,149.91216 77.92478,149.93517 81.19173,148.56831 C 83.093317,147.77271 84.629728,146.34151 84.805098,145.20238 z M 85,138.54679 C 85,137.74753 87.025,136.19784 89.5,135.10302 C 95.073684,132.63752 95.232742,130.95917 91.033756,118.91907 C 89.06051,113.26102 87.545499,105.94669 86.508178,97.069982 C 85.650545,89.730927 84.622855,83.225341 84.224422,82.613123 C 83.82599,82.000905 83.247727,86.45 82.939394,92.5 C 82.316534,104.72151 83.161259,109.57479 88.025802,121.72341 C 89.661611,125.80865 91,129.70925 91,130.39142 C 91,131.07358 89.213426,132.63583 87.029836,133.86308 C 82.618049,136.34264 81.583051,137.51635 82.5,139 C 83.422588,140.49278 85,140.20682 85,138.54679 z M 99.027607,12.948415 C 100.454,10.28318 99.932584,6.7801459 98.265058,7.8253561 C 96.614403,8.8599916 95.394691,15 96.839816,15 C 97.439215,15 98.423721,14.076787 99.027607,12.948415 z M 45.49603,229.94453 C 45.100767,224.42209 44.710392,214.82617 44.628529,208.62028 C 44.508916,199.55253 44.151819,197.00896 42.810012,195.66715 C 41.214803,194.07195 41.491896,190.24918 43.430044,187.11319 C 43.75363,186.58962 43.318133,185.46099 42.462274,184.60513 C 41.054128,183.19699 41.199994,182.37956 43.996313,176.0084 C 47.410236,168.23009 51.040147,161.70681 51.62761,162.29428 C 51.83643,162.5031 50.669586,167.9344 49.034623,174.36385 C 46.476353,184.42416 46.197044,186.76603 47.030981,191.16336 C 47.563941,193.97365 48.011001,200.82406 48.024446,206.38649 C 48.037891,211.94892 48.512087,218.5101 49.078215,220.96689 C 50.138207,225.56687 48.705386,238.44601 47.017592,239.48913 C 46.575996,239.76205 45.891293,235.46698 45.49603,229.94453 z"
       id="path2475"
       sodipodi:nodetypes="cssssssssssssssssssssssssssssssscccsssssssssssssssssscccssssssssssssssscccsssssscccssssssccsssssccssccsssccssssccsssssssssccssccsssssssssssc" />
    <path
       style="fill:#8db7b7"
       d="M 55.75,359.47173 C 52.28932,357.53928 52.21938,356 55.59227,356 C 58.96754,356 63.93594,352.29638 61.70772,351.44133 C 60.86775,351.11901 58.81225,351.56285 57.13992,352.42765 C 54.1456,353.97607 51,354.509 51,353.46788 C 51,353.17522 51.675,351.32026 52.5,349.34576 C 53.325,347.37125 54,344.88354 54,343.81751 C 54,342.18926 54.59974,341.92891 57.75,342.18963 C 60.90827,342.45103 61.6578,342.97349 62.5,345.50069 C 64.60439,351.8153 65.96091,352.74295 74.42168,353.65332 C 80.13131,354.26768 82.58745,354.97264 83.37276,356.22248 C 85.45183,359.53135 82.68559,360.48309 70.20277,360.75367 C 61.17487,360.94936 57.87144,360.65635 55.75,359.47173 z M 105.5,351.08189 L 99.5,350.5 L 99.19388,345.13881 C 99.01992,342.09214 99.55957,337.80599 100.44388,335.21067 C 102.12658,330.27222 102.37025,324.83572 101.34747,315.05034 L 100.69495,308.8073 L 92.59747,309.38882 C 72.93452,310.80092 69.23929,311.42477 66.76517,313.75 C 65.36395,315.06689 63.10789,316 61.32512,316 C 59.64983,316 56.19133,316.28617 53.63957,316.63592 L 49,317.27185 L 49,323.97699 C 49,327.66482 49.6238,332.75486 50.38622,335.28819 C 51.14864,337.82151 51.52364,340.14303 51.21955,340.44712 C 50.91546,340.7512 49.19322,341 47.39235,341 C 45.59148,341 43.83992,341.45 43.5,342 C 42.04327,344.35704 40,342.93201 40,339.55902 C 40,337.66648 39.55,335.83992 39,335.5 C 38.45,335.16008 38,332.01008 38,328.5 C 38,324.98992 37.55,321.83992 37,321.5 C 36.45,321.16008 36,319.76769 36,318.4058 C 36,316.26756 36.26397,316.07091 37.93426,316.96482 C 38.9981,317.53417 40.78953,318 41.91521,318 C 44.30238,318 44.6556,316.76762 45.49788,305.5 C 45.82679,301.1 46.52346,294.125 47.04603,290 C 47.56859,285.875 48.41862,274.625 48.93497,265 C 49.45132,255.375 50.36362,246.375 50.96231,245 C 51.85756,242.94389 51.95401,243.47655 51.50552,248 C 50.40661,259.08355 49.9268,298.55709 50.91818,296.3193 C 52.98722,291.64902 58.55021,235.67058 57.60153,229.06709 C 57.31968,227.10519 57.42942,219.425 57.8454,212 C 58.51272,200.08877 58.74526,198.83764 59.82135,201.36898 C 62.45298,207.55951 63.09186,218.16587 62.02783,238 C 60.69201,262.90042 60.36856,299.75407 61.45735,303 C 62.24904,305.36022 62.33964,305.38818 63.07768,303.5 C 63.50764,302.4 63.89106,297.88656 63.92972,293.47014 C 63.96837,289.05372 64.73974,279.82872 65.64387,272.97014 C 68.12304,254.16354 68.09629,219.00384 65.59482,208.5 C 64.54696,204.1 62.81229,199.52078 61.73997,198.32395 C 59.803,196.16206 59.80428,196.13928 61.93669,194.82395 C 65.35562,192.71506 68.73361,185.98025 69.51689,179.71108 C 70.4189,172.49165 68.57191,164.96232 65.7157,164.2154 C 63.66168,163.67826 63.65685,163.23261 65.57521,151.25 C 66.202,147.33488 66.08278,147 64.06207,147 C 61.40814,147 58,145.2936 58,143.96482 C 58,143.43417 58.59224,143 59.31609,143 C 60.03994,143 62.93428,140.81585 65.74796,138.14633 L 70.86373,133.29267 L 70.74898,115.39633 C 70.55106,84.528167 74.03415,57.737927 79.74179,46.228093 C 81.72513,42.228545 83.91361,38.486662 84.60507,37.912798 C 86.02239,36.736524 87.93916,28.993915 88.66824,21.5 C 89.40974,13.878452 93.30178,3.1231548 95.41052,2.8683588 C 96.00973,2.7959561 94.925,2.4051946 93,2 L 89.5,1.2632825 L 93.55,1.1316412 C 95.7775,1.0592386 98.0275,1.4242224 98.55,1.9427165 C 99.0725,2.4612105 101.975,3.0237105 105,3.1927165 C 110.15202,3.4805583 110.48306,3.6529013 110.23226,5.9166648 C 110.08463,7.2492081 110.83947,9.2679186 111.91491,10.416665 C 114.12163,12.773805 117.99683,21.309098 118.00616,23.832905 C 118.00955,24.749807 118.68455,26.788938 119.50616,28.364307 C 121.22176,31.65382 121.43804,34 120.02568,34 C 118.51993,34 116,39.557885 116,42.878912 C 116,46.919387 114.01896,48.610617 106.96903,50.588727 C 102.46657,51.852051 100.13056,53.219962 97.4964,56.135667 C 93.06678,61.038727 92.96668,64.599447 97.07096,71.269752 C 101.27238,78.097925 106.2787,97.148671 106.75873,108.13499 C 107.08156,115.52358 106.74815,117.89373 104.44889,124.55529 C 101.31017,133.64898 101.45899,137.13174 105.56479,150.66977 C 108.52128,160.41816 110.32879,164.49262 113.03101,167.5 C 114.01939,168.6 115.55513,172.0237 116.44377,175.10822 C 117.33241,178.19274 119.6211,183.30976 121.52974,186.47937 C 124.57474,191.53609 125,193.06639 125,198.96703 L 125,205.69175 L 131,212.8377 C 137.22187,220.2479 137.92214,222.19794 135.50694,225.38814 C 134.45049,226.7836 134.3484,227.78248 135.11571,229.21621 C 136.66613,232.11319 139.94726,242.24936 139.97541,244.22895 C 139.98894,245.17987 141.05116,249.22987 142.33591,253.22895 C 143.62065,257.22803 145.91527,264.775 147.43505,270 C 148.95483,275.225 151.05367,281.7587 152.09914,284.51933 C 154.33342,290.41906 154.55909,296.29805 152.62552,298.23162 C 151.77387,299.08327 145.60905,300.25936 136.4189,301.32343 C 118.3891,303.41098 116.44319,304.34004 117.51958,310.34667 C 117.92893,312.631 118.57542,316.65006 118.95623,319.2779 C 119.49013,322.96223 120.54712,324.98382 123.5743,328.11033 C 125.73344,330.34031 128.85,332.86606 130.5,333.72311 C 132.15,334.58016 134.73227,336.30962 136.23838,337.56636 C 137.74449,338.82309 141.37779,340.54932 144.31237,341.40243 C 149.81203,343.00123 154.08912,346.40359 152.42637,347.85701 C 151.34797,348.79964 120.17005,352.12646 115,351.85056 C 113.075,351.74783 108.8,351.40193 105.5,351.08189 z M 112.40803,188.35809 C 111.19594,185.62199 110.57752,185.00075 110.28154,186.22187 C 109.9134,187.74071 113.01342,193.26767 113.80858,192.51014 C 113.9783,192.34846 113.34805,190.48003 112.40803,188.35809 z M 71,150.38197 C 71,149.55697 70.55,149.16008 70,149.5 C 69.45,149.83992 69,150.79303 69,151.61803 C 69,152.44303 69.45,152.83992 70,152.5 C 70.55,152.16008 71,151.20697 71,150.38197 z M 80.92488,148.20197 C 83.5696,146.88769 84.71075,145.41326 85.93451,141.72922 C 86.83734,139.01136 88.75123,135.97612 90.38223,134.67561 C 93.65164,132.06867 93.58604,130.95135 89.42972,118.4519 C 88.14072,114.57544 86.32779,105.35044 85.40099,97.951899 C 83.63667,83.867612 82.70259,80 81.06534,80 C 80.46829,80 80.09004,85.199534 80.1037,93.218897 C 80.12206,103.99056 80.5128,107.55434 82.21433,112.4689 C 83.36278,115.786 84.34688,120.975 84.40121,124 C 84.45555,127.025 84.95,129.8489 85.5,130.27532 C 86.09825,130.73916 84.91528,132.41172 82.55549,134.43849 C 79.11408,137.39425 78.78344,138.03413 79.96311,139.45555 C 81.8782,141.7631 79.95461,143.58126 77.1731,142.09264 C 73.00367,139.86123 71.83685,141.81049 73.97525,147.4349 C 75.10692,150.41142 76.22946,150.53533 80.92488,148.20197 z M 97.01096,13.75 C 98.85479,10.725903 99.72271,6 98.43426,6 C 98.1231,6 96.9981,6.4658327 95.93426,7.0351838 C 94.4653,7.8213477 94,9.1444067 94,12.535184 C 94,14.990833 94.23161,17 94.5147,17 C 94.79778,17 95.9211,15.5375 97.01096,13.75 z M 45,224.58179 C 45,223.80177 44.72686,222.45177 44.39301,221.58179 C 44.05917,220.7118 44.23309,220 44.77951,220 C 45.32593,220 45.97114,221.35 46.21331,223 C 46.45548,224.65 46.28155,226 45.82681,226 C 45.37206,226 45,225.3618 45,224.58179 z M 61.71528,191.38194 C 61.37535,191.04201 61.30334,189.57951 61.55526,188.13194 C 61.80718,186.68437 62.16559,181.55928 62.35171,176.74285 C 62.53784,171.92641 63.07755,167.87641 63.55109,167.74285 C 64.02462,167.60928 65.00513,169.525 65.73,172 C 66.74717,175.47299 66.80698,178.07409 65.99209,183.39709 C 64.70654,191.79451 63.8071,193.47377 61.71528,191.38194 z"
       id="path2473"
       sodipodi:nodetypes="csssssssssssccccscccsscccsssssssssssssssssssssssssssssssssscccsssscccssssssssssssssssscccssssssssssssssssccssccsssccsssssssssssssccssssccssssccsssssc" />
    <path
       style="fill:#70b2b2"
       d="M 64.334667,360.31161 C 60.587073,360.06686 57.695964,359.33859 56.962222,358.45448 C 56.005799,357.30206 56.040134,356.99872 57.127555,356.99384 C 57.8824,356.99045 59.85,356.27415 61.5,355.40207 C 65.931689,353.05975 81.455599,353.19735 84.113259,355.6025 C 88.590446,359.6543 81.202707,361.41325 64.334667,360.31161 z M 54.317643,351.25 C 56.578001,344.06977 57.576779,342.5 59.884888,342.5 C 61.196577,342.5 62.58323,343.175 62.966339,344 C 63.349449,344.825 64.396656,346.96918 65.293467,348.76485 C 66.876076,351.93369 66.866593,351.99897 64.971046,350.9845 C 63.522543,350.20929 62.253619,350.33461 60.058691,351.46965 C 56.012688,353.56192 53.618677,353.47033 54.317643,351.25 z M 109.53459,351.31124 C 106.25361,351.07809 102.99111,350.40759 102.28459,349.82122 C 100.51044,348.34881 100.67437,341.02358 102.58374,336.45383 C 104.54485,331.76023 104.29329,310.49017 102.25666,308.79875 C 101.48841,308.16072 98.431538,308.01911 94.256657,308.42814 C 90.540496,308.79223 84.125,309.41201 80,309.80542 C 72.915487,310.4811 67,312.89716 67,315.11501 C 67,315.60175 63.715,316 59.7,316 C 55.355556,316 51.914155,316.48584 51.2,317.2 C 49.54107,318.85893 49.696737,327.68246 51.489176,333.59107 C 53.608635,340.57767 53.488967,341.33954 50.394111,340.56278 C 48.750406,340.15024 46.923487,340.47534 45.446258,341.44326 C 42.944791,343.08228 41.601505,342.20204 42.606707,339.58252 C 42.943965,338.70364 42.500749,336.88699 41.621784,335.54552 C 40.465939,333.78148 40.192792,331.87257 40.634791,328.64783 C 41.082924,325.37835 40.813058,323.57119 39.622959,321.87209 C 37.074124,318.23311 37.607625,317.31937 42.226044,317.41369 L 46.452087,317.5 L 47.663372,305.5 C 48.329579,298.9 49.303555,291.475 49.827763,289 C 50.71639,284.80443 50.788281,285.09194 50.890434,293.25 C 51.066231,307.28923 52.862914,304.02961 55.988988,284 C 58.27599,269.34655 59.907028,248.18274 60.453741,226.06682 C 60.772344,213.17858 61.211276,202.45539 61.429148,202.23752 C 61.647019,202.01965 62.383721,204.46458 63.066265,207.67069 C 64.047996,212.28219 64.063917,222.02931 63.142474,254.32745 C 62.501846,276.78254 62.192003,295.50165 62.453935,295.92546 C 62.715866,296.34928 63.013703,299.47978 63.115794,302.88214 C 63.217885,306.2845 63.647335,309.28204 64.070126,309.54334 C 64.858398,310.03052 65.119751,307.67562 66.960485,283.5 C 67.546764,275.8 68.489648,265.9 69.055784,261.5 C 69.62192,257.1 70.116001,246.075 70.153741,237 C 70.208949,223.72479 69.796167,218.44825 68.041698,210.00196 C 66.842334,204.22804 65.122697,198.68807 64.220282,197.69091 C 62.79912,196.12055 62.77496,195.75428 64.039763,194.95426 C 64.842893,194.44626 65.725773,194.02373 66.001717,194.01531 C 67.04621,193.98343 70.979114,185.31567 71.907276,181 C 73.456939,173.79453 70.765041,164.23125 66.774792,162.76626 C 66.375927,162.61982 66.527359,159.43849 67.111306,155.69665 C 68.331881,147.8754 67.847312,145.5963 65.146109,146.45363 C 64.067626,146.79592 62.749955,146.40364 62.018738,145.52258 C 60.999659,144.29466 61.001635,144 62.028948,144 C 62.729559,144 65.747031,141.51642 68.734442,138.48093 L 74.166099,132.96185 L 73.48833,122.23093 C 73.115557,116.32892 73.298579,105.425 73.895046,98 C 74.491513,90.575 75.220675,80.736358 75.515405,76.136352 C 75.810135,71.536345 76.494938,66.943716 77.03719,65.930509 C 77.579442,64.917302 78.191591,61.480944 78.397521,58.294157 C 78.70076,53.601496 79.752921,50.715464 83.932162,43.112876 C 88.948655,33.987214 92.695211,22.254074 91.54761,19.263473 C 90.886468,17.540567 93.341119,9.8363761 95.993907,5.3082786 L 97.863779,2.1165572 L 94.681889,1.7183157 C 92.006305,1.3834427 92.176264,1.2946089 95.75,1.1600371 C 98.0875,1.0720167 100,1.45 100,2 C 100,2.55 101.9125,3.0061446 104.25,3.0136547 C 110.54824,3.0338901 112.84776,3.8661655 112.30802,5.9301353 C 112.05522,6.8968336 112.90383,9.2430455 114.19381,11.14394 C 115.48379,13.044834 117.36374,17.277586 118.37148,20.550055 C 119.37922,23.822525 120.86257,27.825678 121.66782,29.445952 C 123.00345,32.133439 122.96892,32.528249 121.27423,33.945952 C 118.78378,36.029345 117.12141,39.748733 116.78059,44 C 116.50957,47.380578 116.25516,47.585301 109.32425,50 C 101.25122,52.812603 98.360243,54.996096 96.317894,59.823404 C 94.707252,63.630325 95.149104,65.58498 99.058032,71.945168 C 100.75513,74.706495 103.0655,81.421985 104.92552,89 C 108.96599,105.46152 109.10066,115.79505 105.41383,126.47125 C 102.88635,133.79028 102.86255,134.10248 104.36498,140.2301 C 108.47749,157.00288 111.22197,164.27948 114.44416,166.95366 C 115.31098,167.67305 116.73548,170.79028 117.60972,173.88082 C 118.48396,176.97137 120.98541,182.79777 123.1685,186.82838 C 126.46735,192.91902 127.11171,195.03023 126.98362,199.32838 C 126.89885,202.17277 126.86786,204.99314 126.91475,205.59588 C 126.96164,206.19861 129.76425,209.98395 133.14278,214.00775 C 138.19957,220.03036 139.0824,221.60451 138.13641,222.91188 C 135.98591,225.88388 135.73316,227.13278 136.84005,229.31746 C 138.52954,232.65202 140.96913,240.28344 140.98545,242.28491 C 140.99345,243.2666 142.17369,247.7666 143.60821,252.28491 C 149.0267,269.35157 150.88068,275.60506 151.52848,279 C 151.89579,280.925 152.82715,283.49667 153.59816,284.71482 C 155.06559,287.03327 155.55693,297.53776 154.23612,298.35407 C 153.81599,298.61373 147.26272,299.54605 139.67331,300.42591 C 132.08389,301.30577 124.27047,302.6958 122.31015,303.51488 C 118.36824,305.16191 118.47207,304.22107 120.5826,319.16883 C 121.41234,325.04549 125.45628,330.11168 132.48275,334.07717 C 135.363,335.70269 138.52742,337.92531 139.51478,339.01633 C 140.50214,340.10735 142.01269,341 142.87155,341 C 145.18374,341 152.97637,344.13561 153.15,345.13586 C 153.6955,348.27848 153.15136,348.49052 141.5,349.6755 C 124.74883,351.37914 116.4595,351.80332 109.53459,351.31124 z M 114.38241,187.34814 C 112.9073,184.06018 112.5994,183.81769 112.26731,185.68232 C 111.79289,188.34608 115.21198,195.37272 115.75412,192.84814 C 115.94922,191.93961 115.33195,189.46461 114.38241,187.34814 z M 111.68311,180.8125 C 111.36389,180.01477 111.12693,180.25172 111.07895,181.41667 C 111.03553,182.47083 111.27187,183.06146 111.60417,182.72917 C 111.93646,182.39687 111.97199,181.53438 111.68311,180.8125 z M 73.738479,149.71544 C 73.103851,147.81155 71.483691,149.10418 71.227359,151.71891 C 70.965227,154.39281 71.013923,154.42448 72.490838,152.54044 C 73.335704,151.46268 73.897142,150.19143 73.738479,149.71544 z M 87.745033,145.18642 C 88.979801,143.70889 89.992301,141.34094 89.995033,139.92431 C 89.997828,138.4748 91.093083,136.32173 92.5,135 C 95.52023,132.16264 95.68338,128.81347 93.119294,122.28702 C 90.812767,116.41615 88.570805,105.65902 86.968902,92.7769 C 85.873976,83.971775 84.04688,78.619787 82.622216,80.044451 C 82.324497,80.342169 81.983971,86.866462 81.86549,94.542878 C 81.693115,105.71111 81.979831,109.23111 83.300375,112.15886 C 85.821161,117.74765 87.169938,124.81395 86.098162,126.81658 C 85.574732,127.79462 85.540679,129.21475 86.020114,130.07146 C 87.055123,131.92092 86.243845,133.30869 83.185817,134.91983 C 81.262017,135.93339 80.984109,136.65116 81.538384,139.17476 L 82.205134,142.21045 L 77.966321,141.49431 L 73.727507,140.77817 L 74.431476,143.63908 C 74.818659,145.21259 75.776303,147.49107 76.559573,148.70238 C 77.924492,150.81319 78.139946,150.84173 81.74185,149.3888 C 83.808833,148.55502 86.510265,146.66395 87.745033,145.18642 z M 69.5,141 C 69.839919,140.45 69.641476,140 69.059017,140 C 68.476558,140 68,140.45 68,141 C 68,141.55 68.198442,142 68.440983,142 C 68.683524,142 69.160081,141.55 69.5,141 z M 100.02693,12.75 C 102.45942,7.3911091 102.47911,6 100.12244,6 C 97.512747,6 96.200097,7.8964657 95.416052,12.799614 C 94.851453,16.330422 95.011664,17 96.421084,17 C 97.424394,17 98.87256,15.293132 100.02693,12.75 z M 52.194949,254.5 C 52.215328,252.85 52.439447,252.29606 52.692991,253.26903 C 52.946534,254.242 52.92986,255.592 52.655937,256.26903 C 52.382014,256.94606 52.174569,256.15 52.194949,254.5 z M 64.827216,190.46346 C 64.340823,189.6186 64.36412,184.39825 64.909615,172 C 65.054879,168.69836 65.146815,168.61001 66.531803,170.44113 C 68.364241,172.86383 68.436384,184.26535 66.645839,188.46346 C 65.950665,190.09336 65.132284,190.99336 64.827216,190.46346 z"
       id="path2471"
       sodipodi:nodetypes="cssssccsssssccssssssssssssssscccssssssssssssssssssssssscccsssssscccssssssssssssssssssssssssssssssssssssccssccssccssccsssssssssscccccssccsssccsssccssccsssc" />
    <path
       style="fill:#57a6a6"
       d="M 67,360.30501 C 63.425,360.07917 60.103282,359.49894 59.618404,359.0156 C 58.004524,357.40685 65.438915,355.28025 74.30334,354.81499 C 81.574061,354.43337 83.264798,354.63512 84.532145,356.03552 C 87.850179,359.70191 81.589036,361.22664 67,360.30501 z M 55.555001,349.75 C 56.747948,345.8587 58.04029,344.79094 59.806094,346.23767 C 61.131171,347.32331 61.263544,347.17691 60.751808,345.19177 C 60.289975,343.40022 60.530956,342.95483 61.828393,343.20199 C 64.880903,343.78349 64.272139,347.34442 60.708965,349.75 C 58.875967,350.9875 56.811262,352 56.120733,352 C 55.281013,352 55.093659,351.25486 55.555001,349.75 z M 113.5,351.04239 C 112.4,350.54639 109.3625,350.10894 106.75,350.07029 C 102.2712,350.00401 101.99563,349.84299 101.92349,347.25 C 101.88141,345.7375 101.69246,343.68685 101.50361,342.693 C 101.31475,341.69916 101.81416,338.96685 102.6134,336.62122 C 103.64376,333.59727 103.98414,328.88594 103.78328,320.42822 L 103.5,308.5 L 95.5,308.68848 C 77.307717,309.11709 69.642888,310.61383 66.930227,314.2674 C 66.616852,314.68948 62.627687,315.32266 58.065417,315.67447 L 49.770381,316.31414 L 50.349833,324.90707 C 50.668531,329.63318 51.22127,334.9625 51.578142,336.75 C 52.220726,339.96858 52.189587,340 48.356978,340 C 44.719236,340 44.412324,339.76087 43.243479,336.01575 C 42.559565,333.82441 42,329.82951 42,327.13819 C 42,324.00854 41.459368,321.7962 40.5,321 C 38.13707,319.03894 38.743266,317.78716 41.75,318.41877 C 46.027934,319.31742 47.411322,317.73692 47.984336,311.29616 C 48.456602,305.9878 48.688797,305.52623 50.743315,305.81173 C 52.952764,306.11875 53.618881,305.23301 55.490065,299.5 C 56.107097,297.60951 56.214106,297.59677 57.444365,299.26737 C 58.221859,300.32315 59.400987,300.78336 60.372945,300.41038 C 61.757129,299.87922 62,300.62766 62,305.4244 C 62,309.58383 62.404761,311.21809 63.543128,311.65492 C 64.391849,311.98061 65.285888,312.04745 65.529882,311.80345 C 65.773876,311.55946 66.418343,303.51636 66.962031,293.92991 C 67.505719,284.34346 68.652293,271.55 69.509974,265.5 C 72.139381,246.95242 72.362398,226.5039 70.065107,214.59961 C 68.003267,203.9154 67.459465,201.84522 65.799251,198.36007 C 64.98746,196.65595 65.19875,195.80125 66.836747,194.16325 C 70.151412,190.84859 71.983551,186.45075 72.631204,180.25435 C 73.337034,173.50133 71.474765,163.11941 69.415886,162.32935 C 65.995133,161.01668 69.771452,156.53327 73.728893,157.20876 C 74.919216,157.41194 75.596152,156.63218 75.967579,154.63006 C 76.401146,152.29297 77.428342,151.39666 81.5,149.80257 C 89.316323,146.74241 93,143.49726 93,139.67161 C 93,137.89698 93.708893,135.43293 94.575317,134.19593 C 96.29672,131.73829 96.068442,130.13159 92.072185,116.57797 C 90.949665,112.77085 89.289223,103.99585 88.382316,97.07797 C 86.618572,83.624143 84.810735,77.563682 82.764226,78.244298 C 81.842051,78.55099 81.434162,82.43032 81.25666,92.582374 C 81.051137,104.33712 81.329168,107.45145 83.045725,112.62239 C 85.871758,121.1355 85.378573,132.34611 82.07627,134.65913 C 80.486111,135.77292 79.948622,136.9509 80.268077,138.62202 C 80.868463,141.76274 79.648858,141.63923 77.487395,138.34042 C 75.259103,134.93962 74.344299,114.47547 76.052692,106.24618 C 76.68638,103.19373 77.23774,93.767764 77.277938,85.2996 C 77.335529,73.16726 77.649143,69.736102 78.757144,69.116033 C 79.737283,68.56752 80.222604,66.082903 80.359141,60.914564 C 80.503164,55.46281 81.143363,52.385471 82.777509,49.289838 C 83.999879,46.974249 85,44.140262 85,42.992089 C 85,41.843916 86.03183,39.913489 87.292955,38.702251 C 88.55408,37.491013 90.860936,32.677544 92.419302,28.005654 C 93.977667,23.333763 96.041127,18.959067 97.004768,18.284107 C 97.968409,17.609146 100.03669,14.119102 101.60094,10.528453 C 104.23841,4.4743342 104.67389,4 107.59472,4 C 110.48133,4 110.79635,4.3249544 111.36656,7.8908483 C 111.70938,10.03478 112.68698,12.049642 113.54392,12.378481 C 115.22688,13.024293 120,22.951558 120,25.806007 C 120,26.767946 120.74237,28.614865 121.6497,29.91027 C 123.2016,32.125905 123.1843,32.36144 121.35798,33.882776 C 118.79004,36.021888 117.12518,39.701651 116.78059,44 C 116.50854,47.393425 116.27663,47.576416 109.1644,50.009555 C 103.8109,51.841025 100.90623,53.525817 98.414404,56.24487 C 94.103773,60.948583 93.972771,64.701246 97.902372,70.912453 C 100.67946,75.301973 101.80218,78.466275 105.73922,93 C 108.42621,102.91913 108.14729,118.76639 105.14962,126.5 C 102.5221,133.27865 102.71345,138.22443 105.95251,147.25156 C 106.98828,150.1382 108.3817,154.6394 109.049,157.25422 C 109.71631,159.86904 111.73871,163.91904 113.54324,166.25422 C 115.34776,168.5894 117.34938,172.525 117.99128,175 C 118.63318,177.475 120.94559,182.78294 123.12997,186.79542 C 126.6292,193.22315 127.07623,194.79279 126.88858,199.9928 C 126.68874,205.53062 126.93282,206.22818 130.84455,211.29851 C 133.13747,214.27056 135.91046,217.51398 137.00675,218.50611 C 139.43063,220.69969 139.49702,221.79332 137.35031,224.16541 C 135.81153,225.86574 135.87403,226.54335 138.28,234.24415 C 139.69866,238.78487 141.28554,244.525 141.8064,247 C 142.32726,249.475 143.4545,253.525 144.31137,256 C 147.89657,266.35549 151,276.86931 151,278.65977 C 151,279.71431 151.9,282.34241 153,284.5 C 155.24114,288.89587 155.65573,296.22688 153.75,297.76206 C 153.0625,298.31588 146.02392,299.5346 138.10872,300.47032 C 123.79829,302.16207 119.48027,303.25577 118.70351,305.38545 C 118.07288,307.11447 120.5078,322.24071 121.80425,324.64787 C 123.12755,327.10489 131.81815,335 133.19943,335 C 133.70424,335 135.77839,336.27343 137.80864,337.82983 C 139.83889,339.38624 144.04277,341.42014 147.1506,342.3496 C 152.43733,343.93071 155.09857,346.40099 153.28278,348.04177 C 152.60886,348.65074 147.01191,349.24209 120,351.55833 C 117.525,351.77056 114.6,351.53838 113.5,351.04239 z M 114.59501,200.8452 L 116.5,198.6904 L 113.75,200.46021 C 110.91444,202.28508 110.37821,203 111.84501,203 C 112.30977,203 113.54727,202.03034 114.59501,200.8452 z M 115.12505,186.8582 C 114.03226,184.46119 112.9894,181.60517 112.80759,180.51148 C 112.62578,179.4178 111.63035,178.35991 110.59551,178.16062 C 109.03817,177.8607 108.83641,178.20333 109.4245,180.14913 C 109.81529,181.44211 110.49133,183.85 110.92681,185.5 C 111.36229,187.15 112.79441,190.3 114.1093,192.5 C 116.43975,196.39919 116.50771,196.43342 116.80598,193.8582 C 116.97427,192.40521 116.21786,189.25521 115.12505,186.8582 z M 100.48207,190.01836 C 102.62046,187.82845 104.14622,185.81289 103.87265,185.53932 C 103.59909,185.26576 101.39714,187.0575 98.979424,189.52097 C 96.561712,191.98443 95.035951,194 95.588844,194 C 96.141737,194 98.343691,192.20826 100.48207,190.01836 z M 105,172 C 105,171.45 104.55,171 104,171 C 103.45,171 103,171.45 103,172 C 103,172.55 103.45,173 104,173 C 104.55,173 105,172.55 105,172 z M 97.573467,162.68521 C 96.15806,160.82951 95,158.56619 95,157.65561 C 95,155.66562 93.64475,155.59733 89,157.35331 C 81.945541,160.02029 78,162.05049 78,163.01342 C 78,164.55523 80.613223,164.17096 82.070673,162.41484 C 82.89424,161.42251 84.435957,160.98375 86.193118,161.24165 C 87.736903,161.46823 89,161.28155 89,160.82681 C 89,158.59456 93.258393,160.44364 96.193535,163.95038 C 100.11518,168.63574 101.29036,167.5583 97.573467,162.68521 z M 65.652941,181.30156 C 66.481325,174.9761 67,174.58057 67,180.27432 C 67,182.80852 66.555428,185.15673 66.012063,185.49254 C 65.382203,185.88182 65.25204,184.3628 65.652941,181.30156 z M 94.078947,11.416667 C 94.126931,10.251724 94.363888,10.014767 94.683114,10.8125 C 94.971985,11.534375 94.936458,12.396875 94.604167,12.729167 C 94.271875,13.061458 94.035526,12.470833 94.078947,11.416667 z M 97,5.5288251 C 97,4.514275 99.920134,3.0617571 100.39973,3.8377516 C 100.7175,4.3519291 100.08257,5.0066515 98.988753,5.2926903 C 97.894939,5.578729 97,5.6849897 97,5.5288251 z"
       id="path2469"
       sodipodi:nodetypes="csssccsssssccsssscccscccsssssssssssssssssssssssssssssssssssssssssssssssssssssssssssssssssssssssssssssssccccsccssssssccsssccsssccsssssssccssccssccssc" />
    <path
       style="fill:#629595"
       d="M 68.75,360.31554 C 66.1375,360.08172 64,359.52132 64,359.07021 C 64,358.18255 68.861513,357 72.510693,357 C 73.754074,357 76.060324,356.32777 77.635693,355.50616 C 81.358944,353.56435 82.342068,353.61551 84.370241,355.85662 C 85.887173,357.53281 85.899011,357.83892 84.49205,359.0066 C 82.782512,360.42539 76.144436,360.97734 68.75,360.31554 z M 113.5,351.04239 C 112.4,350.54639 109.3625,350.10894 106.75,350.07029 C 102.2712,350.00401 101.99563,349.84299 101.92349,347.25 C 101.88141,345.7375 101.69246,343.68685 101.50361,342.693 C 101.31475,341.69916 101.81416,338.96685 102.6134,336.62122 C 103.64376,333.59727 103.98414,328.88594 103.78328,320.42822 L 103.5,308.5 L 100,308.14008 C 95.111367,307.63737 71.078439,310.06407 70.421682,311.12672 C 70.124838,311.60702 68.95974,312 67.832575,312 C 66.214378,312 65.896495,311.5266 66.32173,309.75 C 66.61793,308.5125 67.165015,303.225 67.537473,298 C 67.909931,292.775 68.765026,287.6 69.437683,286.5 C 70.589802,284.61593 71.400117,278.23593 74.137001,249.5 C 76.198799,227.85213 73.475022,203.96822 68.242967,197.81714 C 66.976117,196.32776 67.185624,195.59055 70.065172,191.40528 C 71.854671,188.80433 73.60421,185.28662 73.953037,183.58814 C 74.307494,181.86225 75.229707,180.48834 76.043634,180.47357 C 79.887116,180.40382 80.68865,177.90552 78.521607,172.75 C 77.932093,171.34751 78.294368,171 80.345958,171 C 84.732936,171 88.219931,168.72718 90.02767,164.68946 L 91.751935,160.83819 L 94.450626,163.6691 C 101.10068,170.64494 108.3019,180.80677 112.23121,188.75973 L 116.5,197.3998 L 116.80926,193.16382 C 117.02464,190.21374 116.4934,187.91637 115.05926,185.59589 C 113.92667,183.76331 113,181.1313 113,179.74698 C 113,178.16571 112.07062,176.62106 110.5,175.59196 C 109.125,174.69102 108,173.36901 108,172.65416 C 108,171.46209 103.95171,163.04522 100.47076,157 C 99.679012,155.625 98.833452,154.05 98.591739,153.5 C 98.329307,152.90285 97.790449,153.01203 97.254133,153.771 C 96.760162,154.47006 93.284484,155.32883 89.530402,155.67939 C 83.597972,156.23337 82.527831,156.07476 81.3524,154.46726 C 80.60858,153.45002 80,152.28649 80,151.88163 C 80,151.47676 83.333844,149.45218 87.408541,147.38255 L 94.817083,143.61959 L 95.475642,138.34866 C 96.200249,132.5491 95.529356,126.02959 93.458834,118.75 C 92.715766,116.1375 92.285583,114 92.502873,114 C 92.720164,114 92.230216,112.40189 91.4141,110.44866 C 90.559756,108.40392 90.025024,104.47973 90.153644,101.19866 C 90.402666,94.846165 87.852904,84.068279 84.323293,76.553656 C 81.714951,71.000435 81.427241,67.889234 83.225663,64.684259 C 83.899777,63.482916 84.490388,61.375 84.538132,60 C 84.788301,52.795215 85.132206,51.010651 86.542203,49.600655 C 87.931806,48.211051 87.9236,47.813033 86.459275,45.578189 C 84.096352,41.971914 85.368585,39.390665 90.277206,37.83194 C 94.364036,36.534173 94.464302,36.397374 94.185253,32.5 C 93.988446,29.751264 94.695407,26.93592 96.445243,23.5 C 97.845755,20.75 98.993513,18.0125 98.995815,17.416667 C 98.998117,16.820833 100.3375,15.020833 101.97222,13.416667 C 103.60694,11.8125 104.95694,9.8025 104.97222,8.95 C 105.01011,6.8359958 107.00848,5 109.27157,5 C 110.59978,5 111.09022,5.6532135 110.96088,7.25 C 110.6368,11.250727 110.95925,12.02431 113.41782,13.144511 C 115.78843,14.224633 120,22.393099 120,25.910846 C 120,26.815124 120.74237,28.614865 121.6497,29.91027 C 123.2016,32.125905 123.1843,32.36144 121.35798,33.882776 C 118.79004,36.021888 117.12518,39.701651 116.78059,44 C 116.50854,47.393425 116.27663,47.576416 109.1644,50.009555 C 103.8109,51.841025 100.90623,53.525817 98.414404,56.24487 C 94.123753,60.92678 94.013128,64.336263 97.907325,71.873133 C 103.92489,83.519593 107.20465,95.580308 107.75542,108.08768 C 108.06809,115.18821 107.74417,117.69922 105.88488,122.58768 C 102.96685,130.25978 102.90211,138.61655 105.69955,146.51041 C 106.86698,149.80468 108.37118,154.6394 109.04222,157.25422 C 109.71325,159.86904 111.73871,163.91904 113.54324,166.25422 C 115.34776,168.5894 117.34938,172.525 117.99128,175 C 118.63318,177.475 120.95373,182.79777 123.14806,186.82838 C 126.47113,192.93231 127.11199,195.02085 126.98362,199.32838 C 126.89885,202.17277 126.86786,204.99314 126.91475,205.59588 C 126.96164,206.19861 129.76425,209.98395 133.14278,214.00775 C 138.19957,220.03036 139.0824,221.60451 138.13641,222.91188 C 137.50438,223.78534 136.70376,225.09697 136.35725,225.8266 C 135.76346,227.07691 138.21246,236.44453 140.12444,240.23643 C 140.606,241.19147 141,242.91213 141,244.06011 C 141,245.2081 142.11838,249.60171 143.48529,253.82368 C 149.91914,273.69592 150.38129,275.46496 150.08923,279.10214 C 149.96327,280.67083 150.89694,282.9125 152.44014,284.74649 C 154.35357,287.02048 155,288.92083 155,292.27191 C 155,294.73767 154.4375,297.19419 153.75,297.73085 C 153.0625,298.2675 149.98463,298.75631 146.91028,298.8171 C 143.83593,298.87789 140.23593,299.33837 138.91028,299.8404 C 137.58463,300.34243 133.18673,301.08448 129.13718,301.48941 C 121.51977,302.2511 117.26085,304.63142 118.36538,307.5098 C 118.6514,308.25513 119.19628,311.70784 119.57624,315.18248 C 119.95619,318.65711 120.86689,322.68597 121.6,324.1355 C 123.00671,326.91685 131.63664,335 133.19943,335 C 133.70424,335 135.77839,336.27343 137.80864,337.82983 C 139.83889,339.38624 144.04277,341.42014 147.1506,342.3496 C 152.43733,343.93071 155.09857,346.40099 153.28278,348.04177 C 152.60886,348.65074 147.01191,349.24209 120,351.55833 C 117.525,351.77056 114.6,351.53838 113.5,351.04239 z M 150,283 C 150,282.45 149.80156,282 149.55902,282 C 149.31648,282 148.83992,282.45 148.5,283 C 148.16008,283.55 148.35852,284 148.94098,284 C 149.52344,284 150,283.55 150,283 z M 114.427,201.47853 C 115.48685,200.6767 116.15512,199.82179 115.91206,199.57873 C 115.66899,199.33566 114.35184,199.996 112.98506,201.04616 C 111.61828,202.09631 110.95,202.95122 111.5,202.94596 C 112.05,202.9407 113.36715,202.28035 114.427,201.47853 z M 100.48207,190.01836 C 102.62046,187.82845 104.14622,185.81289 103.87265,185.53932 C 103.59909,185.26576 101.39714,187.0575 98.979424,189.52097 C 96.561712,191.98443 95.035951,194 95.588844,194 C 96.141737,194 98.343691,192.20826 100.48207,190.01836 z M 56.180449,348.76022 C 56.356202,347.52833 57.288861,346.37008 58.253024,346.18631 C 60.46907,345.76394 61.785577,348.88896 59.895717,350.08561 C 57.401649,351.66485 55.845259,351.10961 56.180449,348.76022 z M 61.345077,345.45687 C 61.019392,344.60815 61.003576,343.66309 61.30993,343.35674 C 62.185641,342.48103 64,343.96639 64,345.55902 C 64,347.47787 62.092444,347.40448 61.345077,345.45687 z M 44.97547,335.75 C 43.448034,333.26186 43.124386,331.5176 43.594833,328.30921 C 44.126601,324.68262 43.858668,323.76776 41.604665,321.51376 C 38.328663,318.23775 38.328911,317.61475 41.605889,318.43722 C 43.257557,318.85176 45.080641,318.52196 46.584559,317.53655 C 48.827234,316.06709 48.982722,316.10572 49.420243,318.24092 C 49.67484,319.48342 50.123713,323.425 50.417738,327 C 50.711764,330.575 51.240515,334.7375 51.592742,336.25 C 52.166903,338.71551 51.960946,339 49.601879,339 C 47.709185,339 46.410582,338.08775 44.97547,335.75 z M 54,313.41667 C 54,312.54583 54.534375,312.01146 55.1875,312.22917 C 57.041723,312.84724 57.34926,315 55.583333,315 C 54.7125,315 54,314.2875 54,313.41667 z M 98.660536,162.17739 C 96.608094,159.90947 96.440225,156.84796 98.409753,157.60374 C 99.746906,158.11686 101.53498,162.79836 100.7092,163.62413 C 100.49573,163.8376 99.573831,163.18657 98.660536,162.17739 z"
       id="path2467"
       sodipodi:nodetypes="csssssccsssscccssssssssssssccccccsssssssssscccsssssssssssssssssssssssssssssssssssssssssssssssssssssssccsssccsssccsssccssccssccssssssssccssccssc" />
    <path
       style="fill:#468b8b"
       d="M 66.5,359.0509 C 63.706444,358.38745 63.844073,358.29053 68.5,357.64236 C 71.25,357.25953 74.881949,356.50839 76.570998,355.97315 C 80.805629,354.63126 82.54863,354.75121 83.986246,356.48343 C 85.007595,357.71408 84.761766,358.14008 82.543591,358.98343 C 79.572485,360.11304 71.121985,360.14858 66.5,359.0509 z M 56.666667,350.33333 C 56.375791,350.04246 56.379942,349.17346 56.67589,348.40223 C 57.373075,346.5854 60,346.57811 60,348.39301 C 60,349.84619 57.585182,351.25185 56.666667,350.33333 z M 109,350.0774 L 102.5,349.5 L 102.18964,345.19148 C 102.01882,342.82008 102.62957,338.91837 103.54805,336.51336 C 104.90895,332.94988 105.11651,329.8706 104.6731,319.82188 C 104.37407,313.04485 104.10028,307.34132 104.0647,307.14738 C 103.99581,306.77191 92.796993,307.49265 79.298258,308.74132 C 74.7873,309.15859 70.5348,310.0625 69.848258,310.75 C 69.161716,311.4375 68.207492,312 67.727759,312 C 66.44763,312 68.001163,288.85519 69.439377,286.5 C 70.589929,284.61589 71.400632,278.23052 74.137001,249.5 C 76.171599,228.13771 73.481157,204.00697 68.393156,197.98309 C 67.32539,196.71892 67.607418,195.7284 70.085842,192.03812 C 71.721501,189.60268 73.308906,186.46029 73.613407,185.05502 C 74.615244,180.43158 75.001093,179.78644 76.435316,180.3368 C 77.215468,180.63618 78.389786,180.23526 79.044911,179.44589 C 80.18835,178.06813 80.065158,176.53616 78.506465,172.75 C 77.926691,171.34169 78.304742,171 80.442671,171 C 84.476974,171 88.573862,168.443 89.980466,165.04716 C 90.674662,163.37122 91.583383,162 91.999847,162 C 93.594923,162 110,182.87464 110,184.9043 C 110,185.57505 111.19387,188.64748 112.65304,191.73191 L 115.30608,197.33997 L 112.55876,199.70311 C 110.78022,201.23295 110.03142,202.63951 110.43527,203.69191 C 110.96557,205.07385 111.49267,204.90217 113.9511,202.54685 C 118.03703,198.63228 119.01389,191.37658 116.0916,186.64822 C 114.94122,184.78686 114,182.26394 114,181.04174 C 114,179.81953 112.65,177.63494 111,176.18709 C 109.35,174.73924 108,172.97499 108,172.26655 C 108,171.13325 99.529371,154.25293 98.346483,153.02896 C 98.096107,152.76989 97.57517,153.06936 97.188845,153.69444 C 96.80252,154.31953 93.271587,155.14775 89.342326,155.53493 C 82.776726,156.18188 82.109297,156.07274 81.100124,154.18708 C 80.100797,152.31982 80.659665,151.76111 87.313731,147.97523 L 94.625431,143.81519 L 95.701451,137.53342 C 96.798884,131.12666 96.537083,128.76373 93.481846,117.5 C 90.76437,107.4815 89.990065,102.88776 90.605524,100.43558 C 90.928459,99.148908 90.511744,95.937036 89.679492,93.298088 C 88.84724,90.659139 87.879283,86.790035 87.528475,84.700079 C 87.177668,82.610122 85.790249,78.830599 84.445322,76.301139 C 81.730035,71.194387 81.389995,67.95561 83.225663,64.684259 C 83.899777,63.482916 84.490388,61.375 84.538132,60 C 84.788383,52.792841 85.132704,51.010153 86.547819,49.595038 C 87.72311,48.419748 87.843449,47.576 87.047819,46.089351 C 85.194434,42.626269 85.805846,40.033752 88.75,38.87174 C 94.280857,36.688795 94.488226,36.445435 94.151164,32.533158 C 93.90688,29.697755 94.845444,26.72229 97.954526,20.475627 C 100.22475,15.91437 102.73871,11.930508 103.5411,11.622601 C 104.3435,11.314694 105,10.238646 105,9.2313848 C 105,7.0982372 106.83474,5 108.7,5 C 109.415,5 110,6.0881956 110,7.4182125 C 110,10.859349 110.99334,13 112.59014,13 C 114.06062,13 119,21.874451 119,24.516416 C 119,25.387013 119.72786,27.506855 120.61748,29.227175 C 122.12291,32.138363 122.11497,32.442766 120.5028,33.621613 C 117.95731,35.482916 116,39.773888 116,43.492987 C 116,46.976929 115.39056,47.397148 106.5,50.04342 C 100.86576,51.72045 95.288971,57.330118 94.476761,62.137549 C 93.926563,65.394142 94.331277,66.812299 97.076503,71.247292 C 98.907667,74.205593 101.67589,81.304851 103.41394,87.5 C 106.0186,96.784075 106.49709,100.21593 106.48131,109.5 C 106.4658,118.62778 106.05739,121.57103 104.08174,126.79272 C 101.88279,132.6046 101.79551,133.52156 102.9395,138.79272 C 105.54093,150.77941 110.4252,164.16343 113.55585,167.88401 C 114.78094,169.33995 116.46567,172.82897 117.29968,175.6374 C 119.00834,181.39108 121.3946,186.36032 124.1414,189.88486 C 125.53682,191.67539 126,193.96424 126,199.06935 L 126,205.86898 L 132,213.41934 C 135.3,217.57204 138,221.50359 138,222.15611 C 138,222.80864 137.29652,224.11985 136.43671,225.06993 C 135.01218,226.64403 135.10093,227.45648 137.43671,234.22385 C 138.84652,238.30843 140,242.41974 140,243.36009 C 140,244.30044 141.17369,248.7666 142.60821,253.28491 C 148.15814,270.76557 149.84016,276.63773 150.36761,280.37403 C 150.66841,282.50474 151.63535,285.04457 152.51637,286.01809 C 153.63648,287.2558 154.02527,289.24853 153.80912,292.64406 L 153.5,297.5 L 139,299.25159 C 131.025,300.21496 122.98332,301.69602 121.12959,302.54283 C 117.79587,304.06572 117.76557,304.13918 118.34656,309.29124 C 120.08185,324.67931 120.08313,324.68362 124.14461,328.91041 C 126.29229,331.14551 129.50086,333.7064 131.27475,334.60128 C 133.04864,335.49615 135.65211,337.30434 137.06025,338.61946 C 138.46839,339.93459 142.23917,341.69268 145.43976,342.52633 C 152.20702,344.28897 153,344.68947 153,346.34466 C 153,347.20207 147.65714,348.09511 135.25,349.31154 C 125.4875,350.26867 117.05,350.96246 116.5,350.85329 C 115.95,350.74412 112.575,350.39497 109,350.0774 z M 150,283 C 150,282.45 149.80156,282 149.55902,282 C 149.31648,282 148.83992,282.45 148.5,283 C 148.16008,283.55 148.35852,284 148.94098,284 C 149.52344,284 150,283.55 150,283 z M 98.006038,193.63524 C 103.94036,187.91873 105.87022,185.47022 105.07124,184.67124 C 104.27226,183.87226 101.65405,185.87791 95.486003,192.01392 C 90.818701,196.65698 87,200.83628 87,201.30125 C 87,203.33165 90.394927,200.96699 98.006038,193.63524 z M 47.22896,338.33071 C 44.788149,337.34865 43.177423,332.60552 43.702565,327.94648 C 44.085127,324.5524 43.811119,323.08813 42.606307,322.08823 C 40.255253,320.13703 40.64583,318.873 43.387195,319.56104 C 45.127902,319.99793 46.176625,319.58592 47.259671,318.03966 C 48.63834,316.07133 48.787879,316.5142 49.343006,324.20956 C 49.671937,328.7693 50.230397,333.9625 50.58403,335.75 C 51.232918,339.02992 50.454657,339.62856 47.22896,338.33071 z M 54,313.41667 C 54,312.54583 54.534375,312.01146 55.1875,312.22917 C 57.041723,312.84724 57.34926,315 55.583333,315 C 54.7125,315 54,314.2875 54,313.41667 z M 98.579461,161.76162 C 97.607342,160.27798 97.001214,158.49636 97.23251,157.80247 C 97.491234,157.0263 98.333146,157.57881 99.420539,159.23838 C 100.39266,160.72202 100.99879,162.50364 100.76749,163.19753 C 100.50877,163.9737 99.666854,163.42119 98.579461,161.76162 z"
       id="path2463"
       sodipodi:nodetypes="cssssccssccccsssssssssssssssssscccsssssssssscccssssssssssssssssssssssssssssssscccssssssscccsssssssssccsssccsssccssssssccssccsssc" />
    <path
       style="fill:#397373"
       d="M 73,359.04326 L 70.5,358.19936 L 73.16896,358.09968 C 74.63689,358.04486 77.17764,357.2311 78.81508,356.29134 C 81.35218,354.83525 82.03558,354.78464 83.4385,355.94896 C 84.34395,356.70041 84.72819,357.67127 84.29238,358.10643 C 83.03342,359.36351 75.74096,359.9685 73,359.04326 z M 109.50927,349.85671 C 106.21438,349.29698 103.18376,348.31275 102.77459,347.66951 C 101.54244,345.73257 101.90425,340.47341 103.53877,336.56145 C 104.65813,333.88245 105.03744,329.74477 104.93041,321.38101 C 104.84949,315.05732 105.08752,309.57914 105.45938,309.20729 C 105.83123,308.83544 108.57577,308.04392 111.55835,307.44836 C 117.84637,306.19278 117.41358,305.64409 118.9914,316.8719 C 119.76466,322.37443 120.68996,325.03126 122.64036,327.34918 C 125.46468,330.70569 131.96044,335.92707 133.36798,335.97218 C 133.84538,335.98748 135.77354,337.35 137.65278,339 C 139.53203,340.65 142.06643,342.02161 143.2848,342.04803 C 145.96138,342.10607 152.22348,345.09374 152.68895,346.53479 C 152.89441,347.17087 147.91344,348.06991 139.7616,348.8681 C 119.60182,350.84205 116.00211,350.95968 109.50927,349.85671 z M 47.68853,332.8838 C 46.69897,330.59965 46.18693,328.00388 46.55067,327.1154 C 47.00817,325.99794 47.65867,326.99033 48.66104,330.33493 C 50.5546,336.65319 49.97719,338.16655 47.68853,332.8838 z M 43.5,321 C 43.16008,320.45 43.32172,320 43.8592,320 C 44.39667,320 45.54823,319.72686 46.41821,319.39301 C 47.4562,318.9947 48,319.33849 48,320.39301 C 48,322.15868 44.50727,322.6298 43.5,321 z M 80.52644,295.92245 C 80.192,295.0548 80.38674,293.113 80.95919,291.60735 C 81.53163,290.1017 82,287.5491 82,285.9349 C 82,284.32071 82.45393,283 83.00874,283 C 84.13387,283 83.26553,293.50014 81.93367,296 C 81.23218,297.31666 81.06018,297.30718 80.52644,295.92245 z M 133.63486,266.92742 C 130.60913,264.54738 130.31534,262.81311 132.61462,260.90488 C 133.99884,259.75608 134.49826,259.89711 136.11462,261.89322 C 138.03108,264.25995 138.71156,269 137.13486,269 C 136.65903,269 135.08403,268.06734 133.63486,266.92742 z M 117.16008,265.76008 C 115.58843,264.18843 115.69864,262.32962 117.40223,261.67589 C 119.14674,261.00646 120,261.80519 120,264.10765 C 120,266.4219 118.62307,267.22307 117.16008,265.76008 z M 122.8471,259.56377 C 121.52756,256.6677 122.32009,254 124.5,254 C 126.82423,254 127.47255,256.82036 125.6191,258.8684 C 124.72619,259.85505 124.29662,260.96328 124.66448,261.33115 C 125.03235,261.69902 125.02369,262 124.64523,262 C 124.26677,262 123.45761,260.9037 122.8471,259.56377 z M 132.39354,252.58316 C 131.56586,250.42626 132.71747,247.73916 134.25053,248.25018 C 134.93774,248.47925 135.5,249.71667 135.5,251 C 135.5,253.74083 133.27325,254.87566 132.39354,252.58316 z M 113.53193,250.83316 C 113.27392,250.09992 113.11957,248.825 113.18894,248 C 113.25831,247.175 113.24418,245.41776 113.15753,244.09501 C 113.0091,241.82889 112.89427,241.78571 111.16885,243.34719 C 108.6216,245.65242 107.87607,244.41496 108.58634,239.06069 C 109.1085,235.1244 108.79203,233.86082 106.34723,230.12043 C 104.41565,227.16526 103.39602,226.28466 103.17668,227.38219 C 102.99885,228.27198 102.23174,229 101.47199,229 C 100.68502,229 99.80809,230.50604 99.43402,232.5 C 98.52289,237.35676 97.3583,236.8712 96.73895,231.37632 C 96.25387,227.07272 94.56217,224.53453 92.87421,225.57775 C 92.4775,225.82292 91.44068,228.15573 90.57016,230.76176 C 89.46421,234.07261 88.17599,235.87662 86.29391,236.7502 C 81.84336,238.81595 81.51304,237.44201 82.69005,221.75989 C 83.70557,208.22951 83.66196,207.40646 81.83769,205.67148 C 80.62346,204.51668 80.13977,203.13499 80.52492,201.92148 C 80.86034,200.86467 80.7026,200 80.17438,200 C 77.87796,200 78.04777,196.55958 80.4689,194.03246 C 81.86101,192.57942 83,190.6811 83,189.81397 C 83,188.20377 89.0317,183 90.89809,183 C 92.86468,183 94.06034,178.9877 93.88043,172.99206 C 93.781,169.67829 93.96229,166.70438 94.28329,166.38338 C 95.5353,165.13137 97.05156,167.30509 97.03292,170.32525 C 97.01626,173.02443 97.39032,177.45394 97.87105,180.25 C 97.94197,180.6625 98.85909,181.85909 99.90909,182.90909 C 101.78788,184.78788 101.68961,184.94675 93.71818,192.91818 C 87.97142,198.66494 85.92864,201.32864 86.6868,202.0868 C 88.01667,203.41667 103.31367,190.22789 105.62465,185.75895 C 107.45076,182.22765 107.83205,182.53342 112.06408,190.9229 L 115.30408,197.3458 L 112.65204,199.46047 C 110.04401,201.54003 109.18268,204.37683 110.84698,205.40543 C 111.31281,205.69333 112.97018,204.59679 114.53001,202.96868 C 116.75281,200.64857 117.52459,198.66406 118.09915,193.79116 C 118.77921,188.02356 118.65747,187.41189 116.41612,185.33468 C 114.77604,183.81471 114,182.00576 114,179.70274 C 114,177.57997 113.25135,175.63246 112,174.5 C 110.9,173.50451 110,172.30196 110,171.82767 C 110,171.16368 100.61597,153.70377 99.44003,152.17982 C 99.30414,152.00371 97.28063,152.50606 94.94334,153.29615 C 90.35375,154.84758 87.73038,154.58498 85.91031,152.39194 C 84.23276,150.37061 85.89993,148.81526 92.70385,146.05405 C 95.89173,144.76032 99.21043,143.09391 100.07874,142.35091 C 100.94705,141.60791 101.90468,141 102.20682,141 C 102.88004,141 106.36734,150.73248 108.08245,157.39792 C 108.77562,160.09177 110.7483,164.14177 112.4662,166.39792 C 114.18409,168.65406 116.34928,173.17865 117.27771,176.45256 C 118.20615,179.72647 120.60651,185.0633 122.61184,188.3122 C 125.98021,193.76939 126.21813,194.65777 125.73582,199.97682 L 125.21374,205.73436 L 131.60687,213.36282 C 135.12309,217.55848 138,221.38815 138,221.8732 C 138,222.35825 137.325,223.31531 136.5,224 C 135.675,224.68469 134.9986,225.97729 134.9969,226.87244 C 134.99519,227.7676 132.66067,230.89229 129.80907,233.81619 C 125.18257,238.56001 124.91374,239.05975 127.31217,238.45779 C 129.42674,237.92706 130,238.13987 130,239.45556 C 130,240.66537 129.23937,241.06854 127.25,240.91317 C 121.75533,240.48405 120.81742,240.84939 121.54322,243.13617 C 122.14354,245.02761 121.92908,245.19902 119.6712,244.63232 C 117.31831,244.04179 117.09718,244.27652 116.81059,247.66886 C 116.50025,251.34244 114.41822,253.35184 113.53193,250.83316 z M 118,241.60699 C 118,241.39083 117.30163,240.94599 116.44806,240.61844 C 115.55814,240.27695 115.15674,240.44459 115.50708,241.01145 C 116.09434,241.96166 118,242.4169 118,241.60699 z M 91.98742,50.25 C 84.81467,42.104137 84.81561,41.264781 92,38.993478 C 95.28483,37.954999 98.53415,35.535976 104.0328,30.035415 C 108.17583,25.890937 112.51647,21.164802 113.67866,19.532894 L 115.79174,16.565788 L 117.39587,20.405018 C 118.27814,22.516594 119,25.095398 119,26.135693 C 119,27.175987 119.5625,28.934762 120.25,30.044081 C 121.25913,31.672364 121.24648,32.21886 120.18435,32.880102 C 118.07463,34.19354 116,38.959123 116,42.491862 C 116,46.509198 115.02923,47.320049 107.70512,49.420261 C 104.51794,50.334196 101.15543,51.96352 100.23288,53.040981 C 97.7782,55.907841 96.62592,55.517811 91.98742,50.25 z M 106,23.190104 C 106,22.500216 106.65204,20.375216 107.44897,18.467881 C 109.20941,14.254576 111.5302,13.716511 110.54536,17.75 C 109.81736,20.73155 106,25.300354 106,23.190104 z"
       id="path2459"
       sodipodi:nodetypes="cccsssccssssssssssssccssccsssccssssccsssccssccssssccssccssssssssssssssssssssssssssscccssssssssssssssssscccssssssssssccssccsscccssssssccssc" />
    <path
       style="fill:#2a5353"
       d="M 79.20817,357.36326 C 80.21717,356.35425 81.53509,355.99136 82.64443,356.41705 C 84.17511,357.00443 84.22405,357.24666 82.97198,358.03848 C 82.16239,358.55047 80.61607,358.97627 79.53571,358.98469 C 77.71675,358.99887 77.69251,358.87891 79.20817,357.36326 z M 110.02123,348.65357 C 104.60278,347.5127 104.53454,347.45319 103.82305,343.2481 C 103.33212,340.34655 103.56357,337.89544 104.55182,335.53022 C 105.50325,333.25313 106,328.47177 106,321.59114 C 106,315.83093 106.3375,310.92381 106.75,310.68643 C 107.1625,310.44905 109.57288,309.95461 112.10639,309.58768 L 116.71278,308.92053 L 117.96887,316.70696 C 119.51094,326.26621 122.35214,330.58143 129.98888,334.963 C 133.01999,336.70209 136.99547,339.19924 138.82326,340.51221 C 140.65106,341.82518 144.12406,343.19598 146.54104,343.55843 C 151.45647,344.29554 154.32218,346.53246 151.30265,347.27524 C 150.31119,347.51913 146.8,347.79811 143.5,347.89518 C 140.2,347.99226 133.91181,348.50555 129.52623,349.03584 C 119.88073,350.20214 117.1189,350.14801 110.02123,348.65357 z M 105.56622,226.50731 C 94.94252,215.19307 93.53806,214.03752 90.67746,214.25731 C 87.70863,214.48542 87.53682,214.31501 87.81697,211.42018 C 87.99843,209.54516 87.50574,207.83469 86.55752,207.04773 C 84.52632,205.362 84.58687,204.2681 86.75,203.57 C 88.52742,202.99637 90.63824,201.1749 101.6871,190.68044 L 107.8742,184.80378 L 110.9181,189.65189 C 114.6901,195.65967 114.85552,198.65308 111.5,200.18195 C 107.61199,201.95345 108.33737,207.95898 112.25764,206.45463 C 115.26818,205.29938 118.1681,199.77138 119.18286,193.25338 C 120.19644,186.74293 120.16985,186.59916 117.60692,184.73219 C 115.57641,183.25307 115,181.98025 115,178.97561 C 115,176.85394 114.61312,174.87893 114.14027,174.58669 C 113.29901,174.06676 104.84151,159.68818 101.59,153.25 C 99.74862,149.60395 96.51639,148.91154 94.46076,151.72278 C 93.34582,153.24755 92.90216,153.2856 90.60052,152.0538 C 87.71516,150.5096 87.18048,149 89.5189,149 C 90.35429,149 93.58463,147.64093 96.69743,145.97985 C 102.99247,142.62063 103.24227,142.72517 105.10867,149.5 C 107.56259,158.40743 110.41397,165.24591 113.0651,168.58192 C 114.60442,170.51891 116.17045,173.54287 116.54517,175.30185 C 117.54577,179.99883 120.90844,187.07649 123.75103,190.46858 C 125.97032,193.11687 126.1853,194.10278 125.74352,199.60639 L 125.24832,205.77561 L 131.62416,213.38345 C 135.13087,217.56776 138,221.47989 138,222.07707 C 138,224.1674 121.78776,239 119.50299,239 C 117.97132,239 113.70872,235.17908 105.56622,226.50731 z M 93.70295,50.207837 C 91.66633,48.122148 90,45.932834 90,45.342696 C 90,43.396833 94.11076,39 95.93001,39 C 97.7758,39 115,21.870357 115,20.034706 C 115,17.325046 117.04649,19.468415 118.06997,23.25 C 118.7026,25.5875 119.71815,28.552559 120.32673,29.83902 C 121.23413,31.757146 121.12435,32.350908 119.71662,33.13871 C 118.77248,33.667079 118,34.766143 118,35.581075 C 118,36.396007 117.32236,37.322803 116.49414,37.640621 C 115.43555,38.046843 115.06428,39.401472 115.24414,42.201456 L 115.5,46.18444 L 108.5,48.702275 C 104.65,50.087085 100.78957,51.845586 99.92126,52.610055 C 97.80052,54.477181 97.91506,54.521427 93.70295,50.207837 z"
       id="path2457" />
    <path
       style="fill:#132727"
       d="M 103,221.95225 C 94.475,213.14842 87.330994,205.75109 87.124432,205.51374 C 86.917869,205.27639 88.2548,203.8262 90.09539,202.2911 C 91.935979,200.75599 96.314177,196.8 99.82472,193.5 C 103.33526,190.2 106.57683,187.36133 107.0282,187.19185 C 108.26641,186.72693 113,194.16188 113,196.57162 C 113,197.84904 112.01543,199.12757 110.5,199.81805 C 108.52227,200.71916 108,201.69278 108,204.47856 C 108,207.7246 108.23462,208 111,208 C 112.65,208 114,208.45 114,209 C 114,210.62436 115.34919,210.15878 118.13937,207.57159 C 119.57978,206.23596 121.40479,204.99846 122.19494,204.82159 C 123.01515,204.63798 126.55252,208.11638 130.43917,212.92837 C 136.76453,220.75968 137.14948,221.5118 135.87339,223.54559 C 134.17495,226.25248 120.87117,237.96635 119.5,237.96222 C 118.95,237.96057 111.525,230.75608 103,221.95225 z"
       id="path2455" />
    <path
       style="fill:#0d1b1b"
       d="M 113.451,230.86436 C 107.91447,223.96655 107.45388,223.47942 96.635707,213.08015 L 88.916972,205.6603 L 93.163509,201.3334 C 95.499105,198.9536 98.000986,197.11753 98.723244,197.25324 C 99.445502,197.38896 100.59074,196.41054 101.26822,195.07897 C 102.78492,192.09794 105,191.21289 105,193.58793 C 105,194.55295 105.71087,196.12802 106.5797,197.08807 C 107.72947,198.35855 107.89326,199.33255 107.18151,200.66681 C 105.21787,204.34787 105.37356,208.36522 107.52248,209.46496 C 108.67552,210.05505 109.3963,211.2523 109.19916,212.25 C 108.99828,213.26656 109.45685,214 110.29332,214 C 112.24488,214 122.41679,209.77199 122.83333,208.78768 C 123.62533,206.91617 125.93144,208.30127 128.5979,212.25 C 130.17635,214.5875 132.53762,217.53742 133.84518,218.80538 C 135.15274,220.07335 135.8983,221.42335 135.50197,221.80538 C 135.10564,222.18742 134.10068,221.4875 133.26872,220.25 C 131.49365,217.60968 129.75346,217.38721 127.94267,219.56908 C 126.83666,220.90174 127.06072,221.47329 129.42971,223.36225 L 132.21897,225.58633 L 126.05602,231.04317 C 122.6664,234.04443 119.55758,236.61985 119.14753,236.76633 C 118.73749,236.91282 116.17404,234.25693 113.451,230.86436 z M 105,203 C 105,202.45 104.80156,202 104.55902,202 C 104.31648,202 103.83992,202.45 103.5,203 C 103.16008,203.55 103.35852,204 103.94098,204 C 104.52344,204 105,203.55 105,203 z M 109.17735,197.44367 C 109.53356,195.73319 111.2678,195.30338 111.76726,196.80179 C 111.94176,197.32528 111.35782,198.03245 110.46962,198.37329 C 109.35551,198.80081 108.95476,198.51252 109.17735,197.44367 z"
       id="path2453" />
  </g>
</svg>
